<?xml version="1.0" encoding="UTF-8" standalone="no"?>
<!DOCTYPE svg PUBLIC "-//W3C//DTD SVG 1.1//EN" "http://www.w3.org/Graphics/SVG/1.1/DTD/svg11.dtd">
<svg xmlns:xlink="http://www.w3.org/1999/xlink" height="500px" version="1.1" viewBox="0 0 500 500" width="500px" x="0px" y="0px" xmlns="http://www.w3.org/2000/svg">
  <defs>
    <clipPath id="clip873014848">
      <rect height="457.046875" width="341.1875" x="10" y="32.953125"/>
    </clipPath>
    <clipPath id="clip430351840">
      <rect height="457.046875" width="341.1875" x="-51.010074999999986" y="-232.296875"/>
    </clipPath>
    <clipPath id="clip-2124480715">
      <rect height="457.046875" width="341.1875" x="-261.31805" y="-232.296875"/>
    </clipPath>
  </defs>
  <rect height="500" style="fill:rgb(210,210,210);stroke:none;" width="500" x="0" y="0"/>
  <rect height="457.046875" style="fill:rgb(255,255,255);stroke:none;" width="341.1875" x="10" y="32.953125"/>
  <rect height="457.046875" style="fill:none;stroke:rgb(130,130,130);stroke-miterlimit:10;" width="341.1875" x="10" y="32.953125"/>
  <g clip-path="url(#clip873014848)">
    <path d="M180.59375,104.53031249999998 C93.91472958186885,104.53031249999998 23.647500000000008,174.7975420818688 23.64749999999998,261.4765625 C23.64749999999998,348.15558291813113 93.9147295818688,418.42281249999996 180.59374999999997,418.4228125 L180.59375,261.4765625 Z" style="fill:rgb(232,41,212);stroke:none;"/>
    <path d="M180.59375,104.53031249999998 C93.91472958186885,104.53031249999998 23.647500000000008,174.7975420818688 23.64749999999998,261.4765625 C23.64749999999998,348.15558291813113 93.9147295818688,418.42281249999996 180.59374999999997,418.4228125 L180.59375,261.4765625 Z" style="fill:none;stroke:rgb(255,255,255);stroke-miterlimit:10;"/>
    <path d="M180.59374999999997,418.4228125 C267.27277041813113,418.4228125 337.53999999999996,348.1555829181312 337.54,261.47656250000006 C337.5400000000001,174.79754208186887 267.27277041813124,104.53031250000001 180.59375000000006,104.53031249999998 L180.59375,261.4765625 Z" style="fill:rgb(184,231,104);stroke:none;"/>
    <path d="M180.59374999999997,418.4228125 C267.27277041813113,418.4228125 337.53999999999996,348.1555829181312 337.54,261.47656250000006 C337.5400000000001,174.79754208186887 267.27277041813124,104.53031250000001 180.59375000000006,104.53031249999998 L180.59375,261.4765625 Z" style="fill:none;stroke:rgb(255,255,255);stroke-miterlimit:10;"/>
  </g>
  <g clip-path="url(#clip430351840)" transform="translate(61.010074999999986 265.25)">
    <path d="M0.421875,-1.875 L1.34375,-1.953125 Q1.4375,-1.28125 1.8125,-0.9375 Q2.1875,-0.59375 2.71875,-0.59375 Q3.34375,-0.59375 3.78125,-1.078125 Q4.234375,-1.5625 4.234375,-2.34375 Q4.234375,-3.09375 3.8125,-3.53125 Q3.390625,-3.96875 2.703125,-3.96875 Q2.28125,-3.96875 1.9375,-3.765625 Q1.59375,-3.578125 1.390625,-3.28125 L0.578125,-3.390625 L1.265625,-7.0625 L4.828125,-7.0625 L4.828125,-6.21875 L1.96875,-6.21875 L1.578125,-4.296875 Q2.234375,-4.75 2.9375,-4.75 Q3.875,-4.75 4.515625,-4.09375 Q5.15625,-3.453125 5.15625,-2.421875 Q5.15625,-1.453125 4.59375,-0.75 Q3.90625,0.125 2.71875,0.125 Q1.734375,0.125 1.109375,-0.421875 Q0.5,-0.96875 0.421875,-1.875 Z M6.421875,-3.53125 Q6.421875,-4.796875 6.671875,-5.5625 Q6.9375,-6.34375 7.453125,-6.765625 Q7.96875,-7.1875 8.75,-7.1875 Q9.328125,-7.1875 9.75,-6.953125 Q10.1875,-6.71875 10.46875,-6.28125 Q10.765625,-5.84375 10.921875,-5.21875 Q11.078125,-4.59375 11.078125,-3.53125 Q11.078125,-2.265625 10.8125,-1.484375 Q10.5625,-0.71875 10.046875,-0.296875 Q9.53125,0.125 8.75,0.125 Q7.71875,0.125 7.125,-0.625 Q6.421875,-1.515625 6.421875,-3.53125 Z M7.3125,-3.53125 Q7.3125,-1.765625 7.71875,-1.171875 Q8.140625,-0.59375 8.75,-0.59375 Q9.359375,-0.59375 9.765625,-1.171875 Q10.1875,-1.765625 10.1875,-3.53125 Q10.1875,-5.296875 9.765625,-5.875 Q9.359375,-6.453125 8.734375,-6.453125 Q8.140625,-6.453125 7.765625,-5.953125 Q7.3125,-5.296875 7.3125,-3.53125 Z M12.90625,0 L12.90625,-1 L13.90625,-1 L13.90625,0 L12.90625,0 Z M15.421875,-3.53125 Q15.421875,-4.796875 15.671875,-5.5625 Q15.9375,-6.34375 16.453125,-6.765625 Q16.96875,-7.1875 17.75,-7.1875 Q18.328125,-7.1875 18.75,-6.953125 Q19.1875,-6.71875 19.46875,-6.28125 Q19.765625,-5.84375 19.921875,-5.21875 Q20.078125,-4.59375 20.078125,-3.53125 Q20.078125,-2.265625 19.8125,-1.484375 Q19.5625,-0.71875 19.046875,-0.296875 Q18.53125,0.125 17.75,0.125 Q16.71875,0.125 16.125,-0.625 Q15.421875,-1.515625 15.421875,-3.53125 Z M16.3125,-3.53125 Q16.3125,-1.765625 16.71875,-1.171875 Q17.140625,-0.59375 17.75,-0.59375 Q18.359375,-0.59375 18.765625,-1.171875 Q19.1875,-1.765625 19.1875,-3.53125 Q19.1875,-5.296875 18.765625,-5.875 Q18.359375,-6.453125 17.734375,-6.453125 Q17.140625,-6.453125 16.765625,-5.953125 Q16.3125,-5.296875 16.3125,-3.53125 Z M21.578125,-5.4375 Q21.578125,-6.203125 21.96875,-6.734375 Q22.359375,-7.28125 23.078125,-7.28125 Q23.765625,-7.28125 24.203125,-6.796875 Q24.640625,-6.3125 24.640625,-5.390625 Q24.640625,-4.484375 24.1875,-3.984375 Q23.75,-3.5 23.09375,-3.5 Q22.453125,-3.5 22.015625,-3.984375 Q21.578125,-4.46875 21.578125,-5.4375 Z M23.109375,-6.671875 Q22.78125,-6.671875 22.5625,-6.390625 Q22.34375,-6.109375 22.34375,-5.359375 Q22.34375,-4.65625 22.5625,-4.375 Q22.78125,-4.109375 23.109375,-4.109375 Q23.4375,-4.109375 23.65625,-4.390625 Q23.875,-4.671875 23.875,-5.421875 Q23.875,-6.109375 23.65625,-6.390625 Q23.4375,-6.671875 23.109375,-6.671875 Z M23.109375,0.265625 L27.03125,-7.28125 L27.75,-7.28125 L23.84375,0.265625 L23.109375,0.265625 Z M26.203125,-1.6875 Q26.203125,-2.453125 26.59375,-2.984375 Q26.984375,-3.515625 27.71875,-3.515625 Q28.390625,-3.515625 28.828125,-3.03125 Q29.28125,-2.5625 29.28125,-1.625 Q29.28125,-0.71875 28.828125,-0.21875 Q28.390625,0.265625 27.71875,0.265625 Q27.078125,0.265625 26.640625,-0.21875 Q26.203125,-0.703125 26.203125,-1.6875 Z M27.75,-2.921875 Q27.40625,-2.921875 27.1875,-2.625 Q26.984375,-2.34375 26.984375,-1.59375 Q26.984375,-0.90625 27.203125,-0.625 Q27.421875,-0.34375 27.734375,-0.34375 Q28.078125,-0.34375 28.296875,-0.625 Q28.515625,-0.90625 28.515625,-1.65625 Q28.515625,-2.359375 28.296875,-2.640625 Q28.078125,-2.921875 27.75,-2.921875 Z" style="fill:rgb(0,0,0);stroke:none;"/>
  </g>
  <g clip-path="url(#clip-2124480715)" transform="translate(271.31805 265.25)">
    <path d="M0.421875,-1.875 L1.34375,-1.953125 Q1.4375,-1.28125 1.8125,-0.9375 Q2.1875,-0.59375 2.71875,-0.59375 Q3.34375,-0.59375 3.78125,-1.078125 Q4.234375,-1.5625 4.234375,-2.34375 Q4.234375,-3.09375 3.8125,-3.53125 Q3.390625,-3.96875 2.703125,-3.96875 Q2.28125,-3.96875 1.9375,-3.765625 Q1.59375,-3.578125 1.390625,-3.28125 L0.578125,-3.390625 L1.265625,-7.0625 L4.828125,-7.0625 L4.828125,-6.21875 L1.96875,-6.21875 L1.578125,-4.296875 Q2.234375,-4.75 2.9375,-4.75 Q3.875,-4.75 4.515625,-4.09375 Q5.15625,-3.453125 5.15625,-2.421875 Q5.15625,-1.453125 4.59375,-0.75 Q3.90625,0.125 2.71875,0.125 Q1.734375,0.125 1.109375,-0.421875 Q0.5,-0.96875 0.421875,-1.875 Z M6.421875,-3.53125 Q6.421875,-4.796875 6.671875,-5.5625 Q6.9375,-6.34375 7.453125,-6.765625 Q7.96875,-7.1875 8.75,-7.1875 Q9.328125,-7.1875 9.75,-6.953125 Q10.1875,-6.71875 10.46875,-6.28125 Q10.765625,-5.84375 10.921875,-5.21875 Q11.078125,-4.59375 11.078125,-3.53125 Q11.078125,-2.265625 10.8125,-1.484375 Q10.5625,-0.71875 10.046875,-0.296875 Q9.53125,0.125 8.75,0.125 Q7.71875,0.125 7.125,-0.625 Q6.421875,-1.515625 6.421875,-3.53125 Z M7.3125,-3.53125 Q7.3125,-1.765625 7.71875,-1.171875 Q8.140625,-0.59375 8.75,-0.59375 Q9.359375,-0.59375 9.765625,-1.171875 Q10.1875,-1.765625 10.1875,-3.53125 Q10.1875,-5.296875 9.765625,-5.875 Q9.359375,-6.453125 8.734375,-6.453125 Q8.140625,-6.453125 7.765625,-5.953125 Q7.3125,-5.296875 7.3125,-3.53125 Z M12.90625,0 L12.90625,-1 L13.90625,-1 L13.90625,0 L12.90625,0 Z M15.421875,-3.53125 Q15.421875,-4.796875 15.671875,-5.5625 Q15.9375,-6.34375 16.453125,-6.765625 Q16.96875,-7.1875 17.75,-7.1875 Q18.328125,-7.1875 18.75,-6.953125 Q19.1875,-6.71875 19.46875,-6.28125 Q19.765625,-5.84375 19.921875,-5.21875 Q20.078125,-4.59375 20.078125,-3.53125 Q20.078125,-2.265625 19.8125,-1.484375 Q19.5625,-0.71875 19.046875,-0.296875 Q18.53125,0.125 17.75,0.125 Q16.71875,0.125 16.125,-0.625 Q15.421875,-1.515625 15.421875,-3.53125 Z M16.3125,-3.53125 Q16.3125,-1.765625 16.71875,-1.171875 Q17.140625,-0.59375 17.75,-0.59375 Q18.359375,-0.59375 18.765625,-1.171875 Q19.1875,-1.765625 19.1875,-3.53125 Q19.1875,-5.296875 18.765625,-5.875 Q18.359375,-6.453125 17.734375,-6.453125 Q17.140625,-6.453125 16.765625,-5.953125 Q16.3125,-5.296875 16.3125,-3.53125 Z M21.578125,-5.4375 Q21.578125,-6.203125 21.96875,-6.734375 Q22.359375,-7.28125 23.078125,-7.28125 Q23.765625,-7.28125 24.203125,-6.796875 Q24.640625,-6.3125 24.640625,-5.390625 Q24.640625,-4.484375 24.1875,-3.984375 Q23.75,-3.5 23.09375,-3.5 Q22.453125,-3.5 22.015625,-3.984375 Q21.578125,-4.46875 21.578125,-5.4375 Z M23.109375,-6.671875 Q22.78125,-6.671875 22.5625,-6.390625 Q22.34375,-6.109375 22.34375,-5.359375 Q22.34375,-4.65625 22.5625,-4.375 Q22.78125,-4.109375 23.109375,-4.109375 Q23.4375,-4.109375 23.65625,-4.390625 Q23.875,-4.671875 23.875,-5.421875 Q23.875,-6.109375 23.65625,-6.390625 Q23.4375,-6.671875 23.109375,-6.671875 Z M23.109375,0.265625 L27.03125,-7.28125 L27.75,-7.28125 L23.84375,0.265625 L23.109375,0.265625 Z M26.203125,-1.6875 Q26.203125,-2.453125 26.59375,-2.984375 Q26.984375,-3.515625 27.71875,-3.515625 Q28.390625,-3.515625 28.828125,-3.03125 Q29.28125,-2.5625 29.28125,-1.625 Q29.28125,-0.71875 28.828125,-0.21875 Q28.390625,0.265625 27.71875,0.265625 Q27.078125,0.265625 26.640625,-0.21875 Q26.203125,-0.703125 26.203125,-1.6875 Z M27.75,-2.921875 Q27.40625,-2.921875 27.1875,-2.625 Q26.984375,-2.34375 26.984375,-1.59375 Q26.984375,-0.90625 27.203125,-0.625 Q27.421875,-0.34375 27.734375,-0.34375 Q28.078125,-0.34375 28.296875,-0.625 Q28.515625,-0.90625 28.515625,-1.65625 Q28.515625,-2.359375 28.296875,-2.640625 Q28.078125,-2.921875 27.75,-2.921875 Z" style="fill:rgb(0,0,0);stroke:none;"/>
  </g>
  <g transform="translate(136.06103515625 27.953125)">
    <path d="M4.328125,-7.265625 L4.328125,-5.734375 L3.015625,-5.734375 L3.015625,-2.796875 Q3.015625,-1.921875 3.046875,-1.765625 Q3.09375,-1.625 3.21875,-1.515625 Q3.359375,-1.421875 3.5625,-1.421875 Q3.828125,-1.421875 4.328125,-1.609375 L4.484375,-0.125 Q3.828125,0.171875 2.96875,0.171875 Q2.453125,0.171875 2.03125,-0 Q1.625,-0.1875 1.421875,-0.453125 Q1.234375,-0.734375 1.15625,-1.203125 Q1.09375,-1.546875 1.09375,-2.5625 L1.09375,-5.734375 L0.21875,-5.734375 L0.21875,-7.265625 L1.09375,-7.265625 L1.09375,-8.703125 L3.015625,-9.828125 L3.015625,-7.265625 L4.328125,-7.265625 Z M9.865234375,-2.3125 L11.787109375,-1.984375 Q11.412109375,-0.9375 10.615234375,-0.375 Q9.818359375,0.171875 8.630859375,0.171875 Q6.740234375,0.171875 5.818359375,-1.078125 Q5.099609375,-2.0625 5.099609375,-3.578125 Q5.099609375,-5.375 6.037109375,-6.390625 Q6.990234375,-7.421875 8.443359375,-7.421875 Q10.052734375,-7.421875 10.990234375,-6.34375 Q11.927734375,-5.28125 11.880859375,-3.078125 L7.068359375,-3.078125 Q7.099609375,-2.21875 7.537109375,-1.734375 Q7.990234375,-1.265625 8.646484375,-1.265625 Q9.099609375,-1.265625 9.396484375,-1.515625 Q9.708984375,-1.765625 9.865234375,-2.3125 Z M9.974609375,-4.25 Q9.958984375,-5.09375 9.552734375,-5.515625 Q9.146484375,-5.953125 8.552734375,-5.953125 Q7.927734375,-5.953125 7.505859375,-5.5 Q7.099609375,-5.03125 7.115234375,-4.25 L9.974609375,-4.25 Z M12.7763671875,-2.078125 L14.6982421875,-2.359375 Q14.8232421875,-1.8125 15.1982421875,-1.515625 Q15.5732421875,-1.21875 16.2607421875,-1.21875 Q16.9951171875,-1.21875 17.3701171875,-1.5 Q17.6357421875,-1.6875 17.6357421875,-2.015625 Q17.6357421875,-2.234375 17.4951171875,-2.375 Q17.3544921875,-2.515625 16.8544921875,-2.625 Q14.5263671875,-3.140625 13.9013671875,-3.5625 Q13.0419921875,-4.15625 13.0419921875,-5.203125 Q13.0419921875,-6.140625 13.7763671875,-6.78125 Q14.5263671875,-7.421875 16.1044921875,-7.421875 Q17.5888671875,-7.421875 18.3076171875,-6.9375 Q19.0419921875,-6.453125 19.3076171875,-5.5 L17.4951171875,-5.171875 Q17.3857421875,-5.59375 17.0576171875,-5.8125 Q16.7294921875,-6.046875 16.1357421875,-6.046875 Q15.3701171875,-6.046875 15.0419921875,-5.828125 Q14.8232421875,-5.6875 14.8232421875,-5.4375 Q14.8232421875,-5.234375 15.0263671875,-5.09375 Q15.2763671875,-4.90625 16.8076171875,-4.546875 Q18.3544921875,-4.203125 18.9638671875,-3.703125 Q19.5576171875,-3.1875 19.5576171875,-2.265625 Q19.5576171875,-1.265625 18.7138671875,-0.546875 Q17.8857421875,0.171875 16.2607421875,0.171875 Q14.7763671875,0.171875 13.9013671875,-0.4375 Q13.0419921875,-1.046875 12.7763671875,-2.078125 Z M24.5625,-7.265625 L24.5625,-5.734375 L23.25,-5.734375 L23.25,-2.796875 Q23.25,-1.921875 23.28125,-1.765625 Q23.328125,-1.625 23.453125,-1.515625 Q23.59375,-1.421875 23.796875,-1.421875 Q24.0625,-1.421875 24.5625,-1.609375 L24.71875,-0.125 Q24.0625,0.171875 23.203125,0.171875 Q22.6875,0.171875 22.265625,0 Q21.859375,-0.1875 21.65625,-0.453125 Q21.46875,-0.734375 21.390625,-1.203125 Q21.328125,-1.546875 21.328125,-2.5625 L21.328125,-5.734375 L20.453125,-5.734375 L20.453125,-7.265625 L21.328125,-7.265625 L21.328125,-8.703125 L23.25,-9.828125 L23.25,-7.265625 L24.5625,-7.265625 Z M29.7392578125,-7.265625 L31.5205078125,-7.265625 L31.5205078125,-6.1875 Q31.8798828125,-6.734375 32.4736328125,-7.078125 Q33.0673828125,-7.421875 33.7861328125,-7.421875 Q35.0517578125,-7.421875 35.9267578125,-6.421875 Q36.8173828125,-5.4375 36.8173828125,-3.671875 Q36.8173828125,-1.859375 35.9267578125,-0.84375 Q35.0361328125,0.171875 33.7705078125,0.171875 Q33.1767578125,0.171875 32.6767578125,-0.0625 Q32.1923828125,-0.3125 31.6611328125,-0.890625 L31.6611328125,2.765625 L29.7392578125,2.765625 L29.7392578125,-7.265625 Z M31.6298828125,-3.75 Q31.6298828125,-2.53125 32.1142578125,-1.9375 Q32.6142578125,-1.359375 33.3017578125,-1.359375 Q33.9736328125,-1.359375 34.4111328125,-1.890625 Q34.8642578125,-2.4375 34.8642578125,-3.65625 Q34.8642578125,-4.796875 34.3955078125,-5.34375 Q33.9423828125,-5.90625 33.2705078125,-5.90625 Q32.5673828125,-5.90625 32.0986328125,-5.359375 Q31.6298828125,-4.8125 31.6298828125,-3.75 Z M38.337890625,-8.25 L38.337890625,-10.015625 L40.259765625,-10.015625 L40.259765625,-8.25 L38.337890625,-8.25 Z M38.337890625,0 L38.337890625,-7.265625 L40.259765625,-7.265625 L40.259765625,0 L38.337890625,0 Z M46.4306640625,-2.3125 L48.3525390625,-1.984375 Q47.9775390625,-0.9375 47.1806640625,-0.375 Q46.3837890625,0.171875 45.1962890625,0.171875 Q43.3056640625,0.171875 42.3837890625,-1.078125 Q41.6650390625,-2.0625 41.6650390625,-3.578125 Q41.6650390625,-5.375 42.6025390625,-6.390625 Q43.5556640625,-7.421875 45.0087890625,-7.421875 Q46.6181640625,-7.421875 47.5556640625,-6.34375 Q48.4931640625,-5.28125 48.4462890625,-3.078125 L43.6337890625,-3.078125 Q43.6650390625,-2.21875 44.1025390625,-1.734375 Q44.5556640625,-1.265625 45.2119140625,-1.265625 Q45.6650390625,-1.265625 45.9619140625,-1.515625 Q46.2744140625,-1.765625 46.4306640625,-2.3125 Z M46.5400390625,-4.25 Q46.5244140625,-5.09375 46.1181640625,-5.515625 Q45.7119140625,-5.953125 45.1181640625,-5.953125 Q44.4931640625,-5.953125 44.0712890625,-5.5 Q43.6650390625,-5.03125 43.6806640625,-4.25 L46.5400390625,-4.25 Z M60.3408203125,-3.6875 L62.2939453125,-3.0625 Q61.8408203125,-1.421875 60.7939453125,-0.625 Q59.7470703125,0.171875 58.1376953125,0.171875 Q56.1376953125,0.171875 54.8408203125,-1.1875 Q53.5595703125,-2.5625 53.5595703125,-4.921875 Q53.5595703125,-7.421875 54.8564453125,-8.796875 Q56.1533203125,-10.1875 58.2626953125,-10.1875 Q60.0908203125,-10.1875 61.2470703125,-9.109375 Q61.9345703125,-8.46875 62.2626953125,-7.265625 L60.2626953125,-6.78125 Q60.0908203125,-7.5625 59.5283203125,-8.015625 Q58.9658203125,-8.46875 58.1533203125,-8.46875 Q57.0439453125,-8.46875 56.3408203125,-7.65625 Q55.6533203125,-6.859375 55.6533203125,-5.078125 Q55.6533203125,-3.171875 56.3251953125,-2.359375 Q57.0126953125,-1.5625 58.1064453125,-1.5625 Q58.9189453125,-1.5625 59.4970703125,-2.0625 Q60.0751953125,-2.578125 60.3408203125,-3.6875 Z M65.935546875,-10.015625 L65.935546875,-6.34375 Q66.857421875,-7.421875 68.154296875,-7.421875 Q68.810546875,-7.421875 69.341796875,-7.171875 Q69.888671875,-6.9375 70.154296875,-6.546875 Q70.419921875,-6.171875 70.513671875,-5.703125 Q70.623046875,-5.234375 70.623046875,-4.265625 L70.623046875,0 L68.701171875,0 L68.701171875,-3.828125 Q68.701171875,-4.984375 68.591796875,-5.28125 Q68.482421875,-5.59375 68.201171875,-5.765625 Q67.935546875,-5.953125 67.513671875,-5.953125 Q67.029296875,-5.953125 66.654296875,-5.71875 Q66.279296875,-5.484375 66.107421875,-5.015625 Q65.935546875,-4.546875 65.935546875,-3.640625 L65.935546875,0 L64.013671875,0 L64.013671875,-10.015625 L65.935546875,-10.015625 Z M74.0029296875,-5.046875 L72.2685546875,-5.359375 Q72.5498046875,-6.40625 73.2685546875,-6.90625 Q73.9873046875,-7.421875 75.4091796875,-7.421875 Q76.6904296875,-7.421875 77.3154296875,-7.109375 Q77.9560546875,-6.8125 78.2060546875,-6.34375 Q78.4560546875,-5.875 78.4560546875,-4.625 L78.4404296875,-2.390625 Q78.4404296875,-1.421875 78.5341796875,-0.96875 Q78.6279296875,-0.515625 78.8779296875,0 L76.9873046875,0 Q76.9091796875,-0.1875 76.7998046875,-0.5625 Q76.7529296875,-0.734375 76.7216796875,-0.796875 Q76.2373046875,-0.3125 75.6748046875,-0.0625 Q75.1123046875,0.171875 74.4716796875,0.171875 Q73.3623046875,0.171875 72.7060546875,-0.4375 Q72.0654296875,-1.046875 72.0654296875,-1.984375 Q72.0654296875,-2.59375 72.3623046875,-3.078125 Q72.6591796875,-3.5625 73.1748046875,-3.8125 Q73.7060546875,-4.078125 74.7060546875,-4.265625 Q76.0498046875,-4.515625 76.5810546875,-4.734375 L76.5810546875,-4.921875 Q76.5810546875,-5.484375 76.2998046875,-5.71875 Q76.0341796875,-5.953125 75.2685546875,-5.953125 Q74.7529296875,-5.953125 74.4716796875,-5.75 Q74.1904296875,-5.546875 74.0029296875,-5.046875 Z M76.5810546875,-3.484375 Q76.2060546875,-3.359375 75.4091796875,-3.1875 Q74.6123046875,-3.015625 74.3623046875,-2.859375 Q73.9873046875,-2.59375 73.9873046875,-2.1875 Q73.9873046875,-1.78125 74.2841796875,-1.484375 Q74.5810546875,-1.1875 75.0498046875,-1.1875 Q75.5654296875,-1.1875 76.0498046875,-1.53125 Q76.3935546875,-1.796875 76.5029296875,-2.171875 Q76.5810546875,-2.40625 76.5810546875,-3.109375 L76.5810546875,-3.484375 Z M82.1953125,0 L80.2734375,0 L80.2734375,-7.265625 L82.0546875,-7.265625 L82.0546875,-6.234375 Q82.5234375,-6.953125 82.8828125,-7.1875 Q83.2421875,-7.421875 83.7109375,-7.421875 Q84.3671875,-7.421875 84.9765625,-7.0625 L84.3828125,-5.390625 Q83.8984375,-5.703125 83.4765625,-5.703125 Q83.0703125,-5.703125 82.7890625,-5.46875 Q82.5234375,-5.25 82.3515625,-4.671875 Q82.1953125,-4.09375 82.1953125,-2.25 L82.1953125,0 Z M89.1279296875,-7.265625 L89.1279296875,-5.734375 L87.8154296875,-5.734375 L87.8154296875,-2.796875 Q87.8154296875,-1.921875 87.8466796875,-1.765625 Q87.8935546875,-1.625 88.0185546875,-1.515625 Q88.1591796875,-1.421875 88.3623046875,-1.421875 Q88.6279296875,-1.421875 89.1279296875,-1.609375 L89.2841796875,-0.125 Q88.6279296875,0.171875 87.7685546875,0.171875 Q87.2529296875,0.171875 86.8310546875,0 Q86.4248046875,-0.1875 86.2216796875,-0.453125 Q86.0341796875,-0.734375 85.9560546875,-1.203125 Q85.8935546875,-1.546875 85.8935546875,-2.5625 L85.8935546875,-5.734375 L85.0185546875,-5.734375 L85.0185546875,-7.265625 L85.8935546875,-7.265625 L85.8935546875,-8.703125 L87.8154296875,-9.828125 L87.8154296875,-7.265625 L89.1279296875,-7.265625 Z" style="fill:rgb(0,0,0);stroke:none;"/>
  </g>
  <g>
    <rect height="70" style="fill:rgb(255,255,255);stroke:none;" width="128.8125" x="365.1875" y="226.4765625"/>
    <rect height="70" style="fill:none;stroke:rgb(130,130,130);stroke-miterlimit:10;stroke-linejoin:bevel;stroke-dasharray:3,0;" width="128.8125" x="365.1875" y="226.4765625"/>
    <rect height="20" style="fill:rgb(232,41,212);stroke:none;" width="20" x="375.1875" y="236.4765625"/>
  </g>
  <g transform="translate(405.1875 250.5546875)">
    <path d="M-0.015625,-0 L3.015625,-7.875 L4.125,-7.875 L7.359375,-0 L6.171875,-0 L5.25,-2.390625 L1.953125,-2.390625 L1.09375,-0 L-0.015625,-0 Z M2.25,-3.234375 L4.921875,-3.234375 L4.109375,-5.421875 Q3.734375,-6.40625 3.546875,-7.046875 Q3.390625,-6.296875 3.125,-5.546875 L2.25,-3.234375 Z M8.1494140625,0 L8.1494140625,-7.875 L11.1025390625,-7.875 Q11.9931640625,-7.875 12.5400390625,-7.625 Q13.0869140625,-7.390625 13.3994140625,-6.890625 Q13.7119140625,-6.40625 13.7119140625,-5.859375 Q13.7119140625,-5.359375 13.4306640625,-4.90625 Q13.1650390625,-4.46875 12.6025390625,-4.1875 Q13.3212890625,-3.984375 13.6962890625,-3.46875 Q14.0869140625,-2.96875 14.0869140625,-2.28125 Q14.0869140625,-1.734375 13.8525390625,-1.25 Q13.6181640625,-0.78125 13.2744140625,-0.515625 Q12.9306640625,-0.265625 12.4150390625,-0.125 Q11.8994140625,0 11.1494140625,0 L8.1494140625,0 Z M9.1806640625,-4.5625 L10.8837890625,-4.5625 Q11.5869140625,-4.5625 11.8837890625,-4.65625 Q12.2744140625,-4.78125 12.4775390625,-5.046875 Q12.6806640625,-5.328125 12.6806640625,-5.734375 Q12.6806640625,-6.125 12.4931640625,-6.421875 Q12.3056640625,-6.71875 11.9462890625,-6.828125 Q11.6025390625,-6.9375 10.7587890625,-6.9375 L9.1806640625,-6.9375 L9.1806640625,-4.5625 Z M9.1806640625,-0.921875 L11.1494140625,-0.921875 Q11.6494140625,-0.921875 11.8525390625,-0.96875 Q12.2119140625,-1.03125 12.4462890625,-1.171875 Q12.6962890625,-1.328125 12.8525390625,-1.609375 Q13.0087890625,-1.90625 13.0087890625,-2.28125 Q13.0087890625,-2.71875 12.7744140625,-3.046875 Q12.5556640625,-3.375 12.1494140625,-3.5 Q11.7587890625,-3.640625 11.0087890625,-3.640625 L9.1806640625,-3.640625 L9.1806640625,-0.921875 Z M21.142578125,-2.765625 L22.189453125,-2.5 Q21.861328125,-1.21875 21.001953125,-0.53125 Q20.158203125,0.140625 18.923828125,0.140625 Q17.642578125,0.140625 16.845703125,-0.375 Q16.048828125,-0.90625 15.626953125,-1.890625 Q15.220703125,-2.875 15.220703125,-4 Q15.220703125,-5.21875 15.689453125,-6.140625 Q16.158203125,-7.0625 17.017578125,-7.53125 Q17.892578125,-8.015625 18.939453125,-8.015625 Q20.126953125,-8.015625 20.923828125,-7.40625 Q21.736328125,-6.8125 22.048828125,-5.71875 L21.017578125,-5.46875 Q20.751953125,-6.328125 20.220703125,-6.71875 Q19.705078125,-7.109375 18.923828125,-7.109375 Q18.001953125,-7.109375 17.392578125,-6.671875 Q16.783203125,-6.25 16.533203125,-5.515625 Q16.298828125,-4.78125 16.298828125,-4 Q16.298828125,-3 16.580078125,-2.25 Q16.876953125,-1.5 17.486328125,-1.125 Q18.111328125,-0.75 18.830078125,-0.75 Q19.705078125,-0.75 20.314453125,-1.25 Q20.923828125,-1.765625 21.142578125,-2.765625 Z M23.46142578125,0 L23.46142578125,-7.875 L26.18017578125,-7.875 Q27.10205078125,-7.875 27.58642578125,-7.765625 Q28.25830078125,-7.609375 28.74267578125,-7.203125 Q29.35205078125,-6.671875 29.66455078125,-5.84375 Q29.97705078125,-5.03125 29.97705078125,-3.984375 Q29.97705078125,-3.078125 29.75830078125,-2.390625 Q29.55517578125,-1.703125 29.22705078125,-1.25 Q28.89892578125,-0.796875 28.50830078125,-0.53125 Q28.11767578125,-0.265625 27.57080078125,-0.125 Q27.02392578125,0 26.30517578125,0 L23.46142578125,0 Z M24.50830078125,-0.921875 L26.19580078125,-0.921875 Q26.96142578125,-0.921875 27.39892578125,-1.0625 Q27.85205078125,-1.21875 28.11767578125,-1.484375 Q28.49267578125,-1.859375 28.69580078125,-2.484375 Q28.89892578125,-3.109375 28.89892578125,-4 Q28.89892578125,-5.234375 28.49267578125,-5.890625 Q28.08642578125,-6.5625 27.50830078125,-6.78125 Q27.08642578125,-6.9375 26.16455078125,-6.9375 L24.50830078125,-6.9375 L24.50830078125,-0.921875 Z M34.6552734375,0 L33.6865234375,0 L33.6865234375,-6.15625 Q33.3427734375,-5.828125 32.7802734375,-5.484375 Q32.2177734375,-5.15625 31.7646484375,-5 L31.7646484375,-5.9375 Q32.5771484375,-6.3125 33.1708984375,-6.84375 Q33.7802734375,-7.390625 34.0302734375,-7.90625 L34.6552734375,-7.90625 L34.6552734375,0 Z M42.21044921875,-0.921875 L42.21044921875,0 L37.00732421875,0 Q37.00732421875,-0.34375 37.13232421875,-0.671875 Q37.31982421875,-1.203125 37.75732421875,-1.71875 Q38.19482421875,-2.234375 39.02294921875,-2.90625 Q40.30419921875,-3.96875 40.75732421875,-4.578125 Q41.21044921875,-5.1875 41.21044921875,-5.734375 Q41.21044921875,-6.3125 40.80419921875,-6.703125 Q40.39794921875,-7.109375 39.72607421875,-7.109375 Q39.03857421875,-7.109375 38.61669921875,-6.6875 Q38.19482421875,-6.265625 38.19482421875,-5.53125 L37.19482421875,-5.625 Q37.30419921875,-6.734375 37.96044921875,-7.3125 Q38.63232421875,-7.90625 39.75732421875,-7.90625 Q40.88232421875,-7.90625 41.53857421875,-7.28125 Q42.21044921875,-6.65625 42.21044921875,-5.71875 Q42.21044921875,-5.25 42.00732421875,-4.78125 Q41.81982421875,-4.328125 41.36669921875,-3.828125 Q40.92919921875,-3.328125 39.88232421875,-2.4375 Q39.00732421875,-1.71875 38.75732421875,-1.453125 Q38.52294921875,-1.1875 38.35107421875,-0.921875 L42.21044921875,-0.921875 Z M43.265625,-2.078125 L44.21875,-2.203125 Q44.390625,-1.390625 44.78125,-1.015625 Q45.1875,-0.65625 45.765625,-0.65625 Q46.453125,-0.65625 46.921875,-1.125 Q47.390625,-1.609375 47.390625,-2.296875 Q47.390625,-2.96875 46.953125,-3.390625 Q46.515625,-3.828125 45.84375,-3.828125 Q45.578125,-3.828125 45.171875,-3.734375 L45.265625,-4.578125 Q45.375,-4.5625 45.421875,-4.5625 Q46.046875,-4.5625 46.53125,-4.875 Q47.03125,-5.203125 47.03125,-5.875 Q47.03125,-6.40625 46.671875,-6.75 Q46.3125,-7.109375 45.75,-7.109375 Q45.1875,-7.109375 44.8125,-6.75 Q44.4375,-6.40625 44.328125,-5.6875 L43.359375,-5.859375 Q43.53125,-6.84375 44.15625,-7.375 Q44.796875,-7.90625 45.71875,-7.90625 Q46.375,-7.90625 46.90625,-7.625 Q47.453125,-7.359375 47.734375,-6.875 Q48.03125,-6.390625 48.03125,-5.859375 Q48.03125,-5.34375 47.75,-4.921875 Q47.484375,-4.515625 46.9375,-4.265625 Q47.640625,-4.109375 48.03125,-3.59375 Q48.421875,-3.09375 48.421875,-2.328125 Q48.421875,-1.296875 47.65625,-0.578125 Q46.90625,0.140625 45.765625,0.140625 Q44.71875,0.140625 44.03125,-0.46875 Q43.359375,-1.09375 43.265625,-2.078125 Z" style="fill:rgb(0,0,0);stroke:none;"/>
  </g>
  <g>
    <rect height="20" style="fill:rgb(184,231,104);stroke:none;" width="20" x="375.1875" y="266.4765625"/>
  </g>
  <g transform="translate(405.1875 280.5546875)">
    <path d="M-0.015625,-0 L3.015625,-7.875 L4.125,-7.875 L7.359375,-0 L6.171875,-0 L5.25,-2.390625 L1.953125,-2.390625 L1.09375,-0 L-0.015625,-0 Z M2.25,-3.234375 L4.921875,-3.234375 L4.109375,-5.421875 Q3.734375,-6.40625 3.546875,-7.046875 Q3.390625,-6.296875 3.125,-5.546875 L2.25,-3.234375 Z M8.1806640625,0 L8.1806640625,-7.875 L11.1494140625,-7.875 Q11.9462890625,-7.875 12.3525390625,-7.796875 Q12.9306640625,-7.703125 13.3212890625,-7.421875 Q13.7119140625,-7.15625 13.9462890625,-6.671875 Q14.1962890625,-6.1875 14.1962890625,-5.59375 Q14.1962890625,-4.59375 13.5556640625,-3.890625 Q12.9150390625,-3.203125 11.2431640625,-3.203125 L9.2275390625,-3.203125 L9.2275390625,0 L8.1806640625,0 Z M9.2275390625,-4.125 L11.2587890625,-4.125 Q12.2744140625,-4.125 12.6962890625,-4.5 Q13.1181640625,-4.875 13.1181640625,-5.5625 Q13.1181640625,-6.0625 12.8681640625,-6.40625 Q12.6181640625,-6.765625 12.2119140625,-6.875 Q11.9462890625,-6.9375 11.2431640625,-6.9375 L9.2275390625,-6.9375 L9.2275390625,-4.125 Z M15.705078125,0 L15.705078125,-7.875 L16.736328125,-7.875 L16.736328125,0 L15.705078125,0 Z M23.6455078125,0 L23.6455078125,-6.9375 L21.0517578125,-6.9375 L21.0517578125,-7.875 L27.2861328125,-7.875 L27.2861328125,-6.9375 L24.6767578125,-6.9375 L24.6767578125,0 L23.6455078125,0 Z M28.38037109375,0 L28.38037109375,-7.875 L34.06787109375,-7.875 L34.06787109375,-6.9375 L29.41162109375,-6.9375 L29.41162109375,-4.53125 L33.77099609375,-4.53125 L33.77099609375,-3.609375 L29.41162109375,-3.609375 L29.41162109375,-0.921875 L34.25537109375,-0.921875 L34.25537109375,0 L28.38037109375,0 Z M35.34228515625,-2.53125 L36.32666015625,-2.609375 Q36.38916015625,-2.03125 36.63916015625,-1.640625 Q36.90478515625,-1.265625 37.43603515625,-1.03125 Q37.96728515625,-0.796875 38.63916015625,-0.796875 Q39.24853515625,-0.796875 39.70166015625,-0.96875 Q40.15478515625,-1.15625 40.37353515625,-1.453125 Q40.60791015625,-1.765625 40.60791015625,-2.140625 Q40.60791015625,-2.515625 40.38916015625,-2.78125 Q40.17041015625,-3.0625 39.67041015625,-3.25 Q39.35791015625,-3.375 38.26416015625,-3.625 Q37.18603515625,-3.890625 36.74853515625,-4.125 Q36.18603515625,-4.421875 35.90478515625,-4.859375 Q35.63916015625,-5.296875 35.63916015625,-5.84375 Q35.63916015625,-6.4375 35.96728515625,-6.953125 Q36.31103515625,-7.46875 36.95166015625,-7.734375 Q37.60791015625,-8.015625 38.40478515625,-8.015625 Q39.27978515625,-8.015625 39.95166015625,-7.71875 Q40.62353515625,-7.4375 40.98291015625,-6.890625 Q41.34228515625,-6.34375 41.37353515625,-5.65625 L40.37353515625,-5.578125 Q40.29541015625,-6.328125 39.82666015625,-6.703125 Q39.35791015625,-7.09375 38.45166015625,-7.09375 Q37.51416015625,-7.09375 37.07666015625,-6.734375 Q36.63916015625,-6.390625 36.63916015625,-5.90625 Q36.63916015625,-5.484375 36.95166015625,-5.203125 Q37.24853515625,-4.9375 38.51416015625,-4.640625 Q39.79541015625,-4.359375 40.26416015625,-4.140625 Q40.95166015625,-3.828125 41.27978515625,-3.34375 Q41.60791015625,-2.859375 41.60791015625,-2.21875 Q41.60791015625,-1.59375 41.24853515625,-1.03125 Q40.88916015625,-0.484375 40.20166015625,-0.171875 Q39.52978515625,0.140625 38.68603515625,0.140625 Q37.62353515625,0.140625 36.90478515625,-0.171875 Q36.18603515625,-0.484375 35.76416015625,-1.109375 Q35.35791015625,-1.734375 35.34228515625,-2.53125 Z M45.03857421875,0 L45.03857421875,-6.9375 L42.44482421875,-6.9375 L42.44482421875,-7.875 L48.67919921875,-7.875 L48.67919921875,-6.9375 L46.06982421875,-6.9375 L46.06982421875,0 L45.03857421875,0 Z M57.97021484375,-7.875 L59.01708984375,-7.875 L59.01708984375,-3.328125 Q59.01708984375,-2.140625 58.73583984375,-1.4375 Q58.47021484375,-0.734375 57.76708984375,-0.296875 Q57.07958984375,0.140625 55.93896484375,0.140625 Q54.82958984375,0.140625 54.12646484375,-0.234375 Q53.42333984375,-0.625 53.11083984375,-1.34375 Q52.81396484375,-2.078125 52.81396484375,-3.328125 L52.81396484375,-7.875 L53.86083984375,-7.875 L53.86083984375,-3.328125 Q53.86083984375,-2.296875 54.04833984375,-1.8125 Q54.23583984375,-1.328125 54.70458984375,-1.0625 Q55.17333984375,-0.8125 55.84521484375,-0.8125 Q56.98583984375,-0.8125 57.47021484375,-1.328125 Q57.97021484375,-1.84375 57.97021484375,-3.328125 L57.97021484375,-7.875 Z M60.3984375,-2.53125 L61.3828125,-2.609375 Q61.4453125,-2.03125 61.6953125,-1.640625 Q61.9609375,-1.265625 62.4921875,-1.03125 Q63.0234375,-0.796875 63.6953125,-0.796875 Q64.3046875,-0.796875 64.7578125,-0.96875 Q65.2109375,-1.15625 65.4296875,-1.453125 Q65.6640625,-1.765625 65.6640625,-2.140625 Q65.6640625,-2.515625 65.4453125,-2.78125 Q65.2265625,-3.0625 64.7265625,-3.25 Q64.4140625,-3.375 63.3203125,-3.625 Q62.2421875,-3.890625 61.8046875,-4.125 Q61.2421875,-4.421875 60.9609375,-4.859375 Q60.6953125,-5.296875 60.6953125,-5.84375 Q60.6953125,-6.4375 61.0234375,-6.953125 Q61.3671875,-7.46875 62.0078125,-7.734375 Q62.6640625,-8.015625 63.4609375,-8.015625 Q64.3359375,-8.015625 65.0078125,-7.71875 Q65.6796875,-7.4375 66.0390625,-6.890625 Q66.3984375,-6.34375 66.4296875,-5.65625 L65.4296875,-5.578125 Q65.3515625,-6.328125 64.8828125,-6.703125 Q64.4140625,-7.09375 63.5078125,-7.09375 Q62.5703125,-7.09375 62.1328125,-6.734375 Q61.6953125,-6.390625 61.6953125,-5.90625 Q61.6953125,-5.484375 62.0078125,-5.203125 Q62.3046875,-4.9375 63.5703125,-4.640625 Q64.8515625,-4.359375 65.3203125,-4.140625 Q66.0078125,-3.828125 66.3359375,-3.34375 Q66.6640625,-2.859375 66.6640625,-2.21875 Q66.6640625,-1.59375 66.3046875,-1.03125 Q65.9453125,-0.484375 65.2578125,-0.171875 Q64.5859375,0.140625 63.7421875,0.140625 Q62.6796875,0.140625 61.9609375,-0.171875 Q61.2421875,-0.484375 60.8203125,-1.109375 Q60.4140625,-1.734375 60.3984375,-2.53125 Z M68.1103515625,0 L68.1103515625,-7.875 L73.7978515625,-7.875 L73.7978515625,-6.9375 L69.1416015625,-6.9375 L69.1416015625,-4.53125 L73.5009765625,-4.53125 L73.5009765625,-3.609375 L69.1416015625,-3.609375 L69.1416015625,-0.921875 L73.9853515625,-0.921875 L73.9853515625,0 L68.1103515625,0 Z M75.431640625,0 L75.431640625,-7.875 L78.931640625,-7.875 Q79.978515625,-7.875 80.525390625,-7.65625 Q81.072265625,-7.453125 81.400390625,-6.90625 Q81.728515625,-6.375 81.728515625,-5.71875 Q81.728515625,-4.890625 81.181640625,-4.3125 Q80.650390625,-3.734375 79.509765625,-3.578125 Q79.931640625,-3.390625 80.134765625,-3.1875 Q80.603515625,-2.765625 81.009765625,-2.140625 L82.369140625,0 L81.072265625,0 L80.025390625,-1.640625 Q79.572265625,-2.34375 79.275390625,-2.71875 Q78.978515625,-3.09375 78.744140625,-3.25 Q78.509765625,-3.40625 78.275390625,-3.453125 Q78.087890625,-3.5 77.681640625,-3.5 L76.478515625,-3.5 L76.478515625,0 L75.431640625,0 Z M76.478515625,-4.40625 L78.712890625,-4.40625 Q79.431640625,-4.40625 79.837890625,-4.546875 Q80.244140625,-4.6875 80.447265625,-5.015625 Q80.650390625,-5.34375 80.650390625,-5.71875 Q80.650390625,-6.28125 80.244140625,-6.640625 Q79.853515625,-7 78.978515625,-7 L76.478515625,-7 L76.478515625,-4.40625 Z" style="fill:rgb(0,0,0);stroke:none;"/>
  </g>
</svg>
