<?xml version="1.0" encoding="UTF-8" standalone="no"?>
<!DOCTYPE svg PUBLIC "-//W3C//DTD SVG 1.1//EN" "http://www.w3.org/Graphics/SVG/1.1/DTD/svg11.dtd">
<svg xmlns:xlink="http://www.w3.org/1999/xlink" height="500px" version="1.1" viewBox="0 0 500 500" width="500px" x="0px" y="0px" xmlns="http://www.w3.org/2000/svg">
  <defs>
    <clipPath id="clip881487488">
      <rect height="458.09375" width="396" x="10" y="31.90625"/>
    </clipPath>
    <clipPath id="clip1719151502">
      <rect height="458.09375" width="396" x="-101.00197912431912" y="-142.88529992522808"/>
    </clipPath>
    <clipPath id="clip-684204041">
      <rect height="458.09375" width="396" x="-266.09958337568094" y="-322.75532507477186"/>
    </clipPath>
  </defs>
  <rect height="500" style="fill:rgb(210,210,210);stroke:none;" width="500" x="0" y="0"/>
  <rect height="458.09375" style="fill:rgb(255,255,255);stroke:none;" width="396" x="10" y="31.90625"/>
  <rect height="458.09375" style="fill:none;stroke:rgb(130,130,130);stroke-miterlimit:10;" width="396" x="10" y="31.90625"/>
  <g clip-path="url(#clip881487488)">
    <path d="M208,78.793125 C113.46840432087174,78.793125 34.64518211884737,151.1050694913357 26.51496156823555,245.2863951108055 L208.0,260.953125 Z" style="fill:rgb(239,141,156);stroke:none;"/>
    <path d="M208,78.793125 C113.46840432087174,78.793125 34.64518211884737,151.1050694913357 26.51496156823555,245.2863951108055 L208.0,260.953125 Z" style="fill:none;stroke:rgb(255,255,255);stroke-miterlimit:10;"/>
    <path d="M26.51496156823555,245.28639511080559 C20.055389630853767,320.1147523748857 60.184362361704245,391.2367079643899 127.57421535204739,424.39717892598765 C194.9640683423905,457.55764988758534 275.797908908126,445.957768909661 331.1430348890759,395.1844870518984 C386.4881608700258,344.41120519413585 404.9972012253842,264.87453161249505 377.75548667329406,194.88240270704267 C350.51377212120394,124.8902738015903 283.1066516392192,78.79312500000003 208.00000000000006,78.793125 L208.0,260.953125 Z" style="fill:rgb(213,221,94);stroke:none;"/>
    <path d="M26.51496156823555,245.28639511080559 C20.055389630853767,320.1147523748857 60.184362361704245,391.2367079643899 127.57421535204739,424.39717892598765 C194.9640683423905,457.55764988758534 275.797908908126,445.957768909661 331.1430348890759,395.1844870518984 C386.4881608700258,344.41120519413585 404.9972012253842,264.87453161249505 377.75548667329406,194.88240270704267 C350.51377212120394,124.8902738015903 283.1066516392192,78.79312500000003 208.00000000000006,78.793125 L208.0,260.953125 Z" style="fill:none;stroke:rgb(255,255,255);stroke-miterlimit:10;"/>
  </g>
  <g clip-path="url(#clip1719151502)" transform="translate(111.00197912431912 174.79154992522808)">
    <path d="M5.03125,-0.84375 L5.03125,-0 L0.296875,-0 Q0.296875,-0.3125 0.40625,-0.609375 Q0.59375,-1.09375 0.984375,-1.5625 Q1.375,-2.03125 2.140625,-2.640625 Q3.296875,-3.609375 3.703125,-4.15625 Q4.125,-4.71875 4.125,-5.21875 Q4.125,-5.75 3.75,-6.09375 Q3.375,-6.453125 2.78125,-6.453125 Q2.140625,-6.453125 1.75,-6.078125 Q1.375,-5.703125 1.375,-5.03125 L0.46875,-5.125 Q0.5625,-6.125 1.15625,-6.65625 Q1.765625,-7.1875 2.796875,-7.1875 Q3.828125,-7.1875 4.421875,-6.609375 Q5.03125,-6.046875 5.03125,-5.203125 Q5.03125,-4.765625 4.84375,-4.34375 Q4.671875,-3.9375 4.265625,-3.46875 Q3.859375,-3.015625 2.90625,-2.21875 Q2.125,-1.5625 1.890625,-1.3125 Q1.671875,-1.078125 1.53125,-0.84375 L5.03125,-0.84375 Z M6.421875,-1.890625 L7.296875,-2 Q7.453125,-1.265625 7.8125,-0.921875 Q8.171875,-0.59375 8.703125,-0.59375 Q9.328125,-0.59375 9.75,-1.015625 Q10.171875,-1.453125 10.171875,-2.09375 Q10.171875,-2.703125 9.78125,-3.09375 Q9.390625,-3.484375 8.78125,-3.484375 Q8.53125,-3.484375 8.15625,-3.390625 L8.25,-4.15625 Q8.34375,-4.15625 8.390625,-4.15625 Q8.953125,-4.15625 9.40625,-4.4375 Q9.859375,-4.734375 9.859375,-5.34375 Q9.859375,-5.828125 9.53125,-6.140625 Q9.203125,-6.46875 8.6875,-6.46875 Q8.171875,-6.46875 7.828125,-6.140625 Q7.484375,-5.828125 7.390625,-5.171875 L6.515625,-5.328125 Q6.671875,-6.21875 7.234375,-6.703125 Q7.8125,-7.1875 8.65625,-7.1875 Q9.25,-7.1875 9.734375,-6.9375 Q10.234375,-6.6875 10.484375,-6.25 Q10.75,-5.8125 10.75,-5.328125 Q10.75,-4.859375 10.5,-4.484375 Q10.265625,-4.109375 9.765625,-3.875 Q10.40625,-3.734375 10.75,-3.265625 Q11.109375,-2.8125 11.109375,-2.109375 Q11.109375,-1.171875 10.421875,-0.515625 Q9.734375,0.125 8.703125,0.125 Q7.75,0.125 7.125,-0.4375 Q6.515625,-1 6.421875,-1.890625 Z M12.90625,0 L12.90625,-1 L13.90625,-1 L13.90625,0 L12.90625,0 Z M19.96875,-5.40625 L19.109375,-5.34375 Q18.984375,-5.859375 18.765625,-6.09375 Q18.40625,-6.46875 17.890625,-6.46875 Q17.46875,-6.46875 17.15625,-6.234375 Q16.734375,-5.921875 16.5,-5.34375 Q16.265625,-4.765625 16.25,-3.6875 Q16.5625,-4.171875 17.015625,-4.40625 Q17.484375,-4.640625 17.984375,-4.640625 Q18.875,-4.640625 19.484375,-3.984375 Q20.109375,-3.34375 20.109375,-2.328125 Q20.109375,-1.65625 19.8125,-1.078125 Q19.515625,-0.5 19,-0.1875 Q18.5,0.125 17.859375,0.125 Q16.765625,0.125 16.0625,-0.6875 Q15.375,-1.5 15.375,-3.34375 Q15.375,-5.421875 16.140625,-6.375 Q16.8125,-7.1875 17.9375,-7.1875 Q18.796875,-7.1875 19.328125,-6.703125 Q19.875,-6.234375 19.96875,-5.40625 Z M16.390625,-2.3125 Q16.390625,-1.859375 16.578125,-1.4375 Q16.765625,-1.03125 17.109375,-0.8125 Q17.46875,-0.59375 17.84375,-0.59375 Q18.40625,-0.59375 18.796875,-1.046875 Q19.203125,-1.5 19.203125,-2.265625 Q19.203125,-3.015625 18.796875,-3.4375 Q18.40625,-3.875 17.8125,-3.875 Q17.21875,-3.875 16.796875,-3.4375 Q16.390625,-3.015625 16.390625,-2.3125 Z M21.578125,-5.4375 Q21.578125,-6.203125 21.96875,-6.734375 Q22.359375,-7.28125 23.078125,-7.28125 Q23.765625,-7.28125 24.203125,-6.796875 Q24.640625,-6.3125 24.640625,-5.390625 Q24.640625,-4.484375 24.1875,-3.984375 Q23.75,-3.5 23.09375,-3.5 Q22.453125,-3.5 22.015625,-3.984375 Q21.578125,-4.46875 21.578125,-5.4375 Z M23.109375,-6.671875 Q22.78125,-6.671875 22.5625,-6.390625 Q22.34375,-6.109375 22.34375,-5.359375 Q22.34375,-4.65625 22.5625,-4.375 Q22.78125,-4.109375 23.109375,-4.109375 Q23.4375,-4.109375 23.65625,-4.390625 Q23.875,-4.671875 23.875,-5.421875 Q23.875,-6.109375 23.65625,-6.390625 Q23.4375,-6.671875 23.109375,-6.671875 Z M23.109375,0.265625 L27.03125,-7.28125 L27.75,-7.28125 L23.84375,0.265625 L23.109375,0.265625 Z M26.203125,-1.6875 Q26.203125,-2.453125 26.59375,-2.984375 Q26.984375,-3.515625 27.71875,-3.515625 Q28.390625,-3.515625 28.828125,-3.03125 Q29.28125,-2.5625 29.28125,-1.625 Q29.28125,-0.71875 28.828125,-0.21875 Q28.390625,0.265625 27.71875,0.265625 Q27.078125,0.265625 26.640625,-0.21875 Q26.203125,-0.703125 26.203125,-1.6875 Z M27.75,-2.921875 Q27.40625,-2.921875 27.1875,-2.625 Q26.984375,-2.34375 26.984375,-1.59375 Q26.984375,-0.90625 27.203125,-0.625 Q27.421875,-0.34375 27.734375,-0.34375 Q28.078125,-0.34375 28.296875,-0.625 Q28.515625,-0.90625 28.515625,-1.65625 Q28.515625,-2.359375 28.296875,-2.640625 Q28.078125,-2.921875 27.75,-2.921875 Z" style="fill:rgb(0,0,0);stroke:none;"/>
  </g>
  <g clip-path="url(#clip-684204041)" transform="translate(276.09958337568094 354.66157507477186)">
    <path d="M0.46875,-6.21875 L0.46875,-7.0625 L5.109375,-7.0625 L5.109375,-6.375 Q4.421875,-5.65625 3.75,-4.453125 Q3.078125,-3.25 2.71875,-1.96875 Q2.453125,-1.0625 2.375,-0 L1.46875,-0 Q1.484375,-0.84375 1.796875,-2.03125 Q2.125,-3.234375 2.71875,-4.34375 Q3.3125,-5.453125 3.984375,-6.21875 L0.46875,-6.21875 Z M10.96875,-5.40625 L10.109375,-5.34375 Q9.984375,-5.859375 9.765625,-6.09375 Q9.40625,-6.46875 8.890625,-6.46875 Q8.46875,-6.46875 8.15625,-6.234375 Q7.734375,-5.921875 7.5,-5.34375 Q7.265625,-4.765625 7.25,-3.6875 Q7.5625,-4.171875 8.015625,-4.40625 Q8.484375,-4.640625 8.984375,-4.640625 Q9.875,-4.640625 10.484375,-3.984375 Q11.109375,-3.34375 11.109375,-2.328125 Q11.109375,-1.65625 10.8125,-1.078125 Q10.515625,-0.5 10,-0.1875 Q9.5,0.125 8.859375,0.125 Q7.765625,0.125 7.0625,-0.6875 Q6.375,-1.5 6.375,-3.34375 Q6.375,-5.421875 7.140625,-6.375 Q7.8125,-7.1875 8.9375,-7.1875 Q9.796875,-7.1875 10.328125,-6.703125 Q10.875,-6.234375 10.96875,-5.40625 Z M7.390625,-2.3125 Q7.390625,-1.859375 7.578125,-1.4375 Q7.765625,-1.03125 8.109375,-0.8125 Q8.46875,-0.59375 8.84375,-0.59375 Q9.40625,-0.59375 9.796875,-1.046875 Q10.203125,-1.5 10.203125,-2.265625 Q10.203125,-3.015625 9.796875,-3.4375 Q9.40625,-3.875 8.8125,-3.875 Q8.21875,-3.875 7.796875,-3.4375 Q7.390625,-3.015625 7.390625,-2.3125 Z M12.90625,0 L12.90625,-1 L13.90625,-1 L13.90625,0 L12.90625,0 Z M18.234375,0 L18.234375,-1.71875 L15.125,-1.71875 L15.125,-2.515625 L18.390625,-7.15625 L19.109375,-7.15625 L19.109375,-2.515625 L20.078125,-2.515625 L20.078125,-1.71875 L19.109375,-1.71875 L19.109375,0 L18.234375,0 Z M18.234375,-2.515625 L18.234375,-5.75 L15.984375,-2.515625 L18.234375,-2.515625 Z M21.578125,-5.4375 Q21.578125,-6.203125 21.96875,-6.734375 Q22.359375,-7.28125 23.078125,-7.28125 Q23.765625,-7.28125 24.203125,-6.796875 Q24.640625,-6.3125 24.640625,-5.390625 Q24.640625,-4.484375 24.1875,-3.984375 Q23.75,-3.5 23.09375,-3.5 Q22.453125,-3.5 22.015625,-3.984375 Q21.578125,-4.46875 21.578125,-5.4375 Z M23.109375,-6.671875 Q22.78125,-6.671875 22.5625,-6.390625 Q22.34375,-6.109375 22.34375,-5.359375 Q22.34375,-4.65625 22.5625,-4.375 Q22.78125,-4.109375 23.109375,-4.109375 Q23.4375,-4.109375 23.65625,-4.390625 Q23.875,-4.671875 23.875,-5.421875 Q23.875,-6.109375 23.65625,-6.390625 Q23.4375,-6.671875 23.109375,-6.671875 Z M23.109375,0.265625 L27.03125,-7.28125 L27.75,-7.28125 L23.84375,0.265625 L23.109375,0.265625 Z M26.203125,-1.6875 Q26.203125,-2.453125 26.59375,-2.984375 Q26.984375,-3.515625 27.71875,-3.515625 Q28.390625,-3.515625 28.828125,-3.03125 Q29.28125,-2.5625 29.28125,-1.625 Q29.28125,-0.71875 28.828125,-0.21875 Q28.390625,0.265625 27.71875,0.265625 Q27.078125,0.265625 26.640625,-0.21875 Q26.203125,-0.703125 26.203125,-1.6875 Z M27.75,-2.921875 Q27.40625,-2.921875 27.1875,-2.625 Q26.984375,-2.34375 26.984375,-1.59375 Q26.984375,-0.90625 27.203125,-0.625 Q27.421875,-0.34375 27.734375,-0.34375 Q28.078125,-0.34375 28.296875,-0.625 Q28.515625,-0.90625 28.515625,-1.65625 Q28.515625,-2.359375 28.296875,-2.640625 Q28.078125,-2.921875 27.75,-2.921875 Z" style="fill:rgb(0,0,0);stroke:none;"/>
  </g>
  <g transform="translate(82.54248046875 26.90625)">
    <path d="M7.078125,-1.78125 L7.078125,-0 L0.34375,-0 Q0.453125,-1.015625 1,-1.921875 Q1.546875,-2.828125 3.171875,-4.328125 Q4.46875,-5.53125 4.765625,-5.96875 Q5.15625,-6.5625 5.15625,-7.140625 Q5.15625,-7.78125 4.8125,-8.125 Q4.46875,-8.46875 3.859375,-8.46875 Q3.25,-8.46875 2.890625,-8.109375 Q2.546875,-7.75 2.484375,-6.90625 L0.578125,-7.09375 Q0.75,-8.6875 1.640625,-9.375 Q2.546875,-10.0625 3.90625,-10.0625 Q5.390625,-10.0625 6.234375,-9.265625 Q7.078125,-8.46875 7.078125,-7.28125 Q7.078125,-6.59375 6.828125,-5.984375 Q6.59375,-5.375 6.078125,-4.703125 Q5.71875,-4.265625 4.8125,-3.421875 Q3.90625,-2.59375 3.65625,-2.3125 Q3.421875,-2.046875 3.265625,-1.78125 L7.078125,-1.78125 Z M11.6298828125,-10.0625 Q13.0830078125,-10.0625 13.9111328125,-9.03125 Q14.8798828125,-7.796875 14.8798828125,-4.9375 Q14.8798828125,-2.09375 13.8955078125,-0.859375 Q13.0830078125,0.171875 11.6298828125,0.171875 Q10.1611328125,0.171875 9.2705078125,-0.953125 Q8.3798828125,-2.078125 8.3798828125,-4.96875 Q8.3798828125,-7.796875 9.3642578125,-9.03125 Q10.1767578125,-10.0625 11.6298828125,-10.0625 Z M11.6298828125,-8.46875 Q11.2861328125,-8.46875 11.0048828125,-8.25 Q10.7392578125,-8.03125 10.5830078125,-7.453125 Q10.3798828125,-6.703125 10.3798828125,-4.9375 Q10.3798828125,-3.171875 10.5517578125,-2.515625 Q10.7392578125,-1.859375 11.0048828125,-1.640625 Q11.2861328125,-1.421875 11.6298828125,-1.421875 Q11.9736328125,-1.421875 12.2392578125,-1.640625 Q12.5205078125,-1.859375 12.6767578125,-2.4375 Q12.8798828125,-3.171875 12.8798828125,-4.9375 Q12.8798828125,-6.703125 12.6923828125,-7.359375 Q12.5205078125,-8.03125 12.2392578125,-8.25 Q11.9736328125,-8.46875 11.6298828125,-8.46875 Z M22.650390625,-1.78125 L22.650390625,0 L15.916015625,0 Q16.025390625,-1.015625 16.572265625,-1.921875 Q17.119140625,-2.828125 18.744140625,-4.328125 Q20.041015625,-5.53125 20.337890625,-5.96875 Q20.728515625,-6.5625 20.728515625,-7.140625 Q20.728515625,-7.78125 20.384765625,-8.125 Q20.041015625,-8.46875 19.431640625,-8.46875 Q18.822265625,-8.46875 18.462890625,-8.109375 Q18.119140625,-7.75 18.056640625,-6.90625 L16.150390625,-7.09375 Q16.322265625,-8.6875 17.212890625,-9.375 Q18.119140625,-10.0625 19.478515625,-10.0625 Q20.962890625,-10.0625 21.806640625,-9.265625 Q22.650390625,-8.46875 22.650390625,-7.28125 Q22.650390625,-6.59375 22.400390625,-5.984375 Q22.166015625,-5.375 21.650390625,-4.703125 Q21.291015625,-4.265625 20.384765625,-3.421875 Q19.478515625,-2.59375 19.228515625,-2.3125 Q18.994140625,-2.046875 18.837890625,-1.78125 L22.650390625,-1.78125 Z M27.7177734375,0 L27.7177734375,-2.015625 L23.6240234375,-2.015625 L23.6240234375,-3.703125 L27.9677734375,-10.0625 L29.5771484375,-10.0625 L29.5771484375,-3.703125 L30.8271484375,-3.703125 L30.8271484375,-2.015625 L29.5771484375,-2.015625 L29.5771484375,0 L27.7177734375,0 Z M27.7177734375,-3.703125 L27.7177734375,-7.125 L25.4208984375,-3.703125 L27.7177734375,-3.703125 Z M33.05078125,-10.15625 L33.05078125,-5.5625 Q33.05078125,-4.859375 33.41015625,-4.421875 Q33.86328125,-3.921875 34.72265625,-3.921875 Q36.48828125,-3.921875 37.81640625,-4 Q39.33203125,-4.109375 40.22265625,-4.296875 Q40.50390625,-4.34375 40.64453125,-4.609375 Q40.73828125,-4.796875 40.69140625,-5.046875 Q40.61328125,-5.265625 40.41015625,-5.390625 Q40.17578125,-5.53125 39.87890625,-5.4375 Q39.09765625,-5.25 37.75390625,-5.15625 Q36.56640625,-5.0625 34.92578125,-5.0625 Q34.51953125,-5.0625 34.41015625,-5.171875 Q34.28515625,-5.28125 34.28515625,-5.578125 L34.28515625,-10.171875 Q34.28515625,-10.46875 34.08203125,-10.65625 Q33.91015625,-10.796875 33.66015625,-10.796875 Q33.42578125,-10.796875 33.23828125,-10.640625 Q33.05078125,-10.453125 33.05078125,-10.15625 Z M42.98828125,-3.046875 L42.98828125,-10.53125 Q42.98828125,-10.828125 42.76953125,-11.03125 Q42.59765625,-11.171875 42.36328125,-11.171875 Q42.09765625,-11.171875 41.91015625,-11.015625 Q41.72265625,-10.828125 41.72265625,-10.53125 L41.72265625,-9.5 L38.25390625,-9.5 Q37.97265625,-9.5 37.81640625,-9.34375 Q37.66015625,-9.15625 37.66015625,-8.9375 Q37.66015625,-8.71875 37.86328125,-8.53125 Q38.05078125,-8.375 38.34765625,-8.375 L41.72265625,-8.375 L41.72265625,-7.328125 L38.23828125,-7.328125 Q37.95703125,-7.328125 37.73828125,-7.1875 Q37.55078125,-7 37.55078125,-6.765625 Q37.55078125,-6.53125 37.72265625,-6.359375 Q37.89453125,-6.1875 38.20703125,-6.1875 L41.72265625,-6.1875 L41.72265625,-3.046875 Q41.72265625,-2.75 41.91015625,-2.5625 Q42.08203125,-2.390625 42.36328125,-2.390625 Q42.61328125,-2.390625 42.78515625,-2.5625 Q42.98828125,-2.75 42.98828125,-3.046875 Z M35.01953125,-2.890625 Q35.01953125,-3.203125 34.81640625,-3.390625 Q34.64453125,-3.5625 34.37890625,-3.5625 Q34.11328125,-3.5625 33.94140625,-3.390625 Q33.75390625,-3.203125 33.75390625,-2.890625 L33.75390625,-1.0625 Q33.75390625,-0.359375 34.22265625,0.015625 Q34.62890625,0.375 35.33203125,0.375 L42.83203125,0.375 Q43.39453125,0.375 43.39453125,-0.203125 Q43.39453125,-0.765625 42.83203125,-0.765625 L35.47265625,-0.765625 Q35.14453125,-0.765625 35.08203125,-0.828125 Q35.01953125,-0.890625 35.01953125,-1.171875 L35.01953125,-2.890625 Z M54.9873046875,0 L53.0654296875,0 L53.0654296875,-7.234375 Q52.0029296875,-6.25 50.5810546875,-5.78125 L50.5810546875,-7.53125 Q51.3310546875,-7.765625 52.2060546875,-8.453125 Q53.0966796875,-9.140625 53.4248046875,-10.0625 L54.9873046875,-10.0625 L54.9873046875,0 Z M62.7734375,0 L60.8515625,0 L60.8515625,-7.234375 Q59.7890625,-6.25 58.3671875,-5.78125 L58.3671875,-7.53125 Q59.1171875,-7.765625 59.9921875,-8.453125 Q60.8828125,-9.140625 61.2109375,-10.0625 L62.7734375,-10.0625 L62.7734375,0 Z M70.7470703125,-11.109375 Q68.9189453125,-11.109375 67.9189453125,-10.5625 Q66.9501953125,-10.03125 66.9501953125,-9.171875 Q66.9501953125,-8.34375 67.9189453125,-7.8125 Q68.9189453125,-7.25 70.7470703125,-7.25 Q72.5595703125,-7.25 73.5595703125,-7.8125 Q74.5439453125,-8.34375 74.5439453125,-9.171875 Q74.5439453125,-10.03125 73.5595703125,-10.5625 Q72.5595703125,-11.109375 70.7470703125,-11.109375 Z M70.7470703125,-9.984375 Q72.0908203125,-9.984375 72.7939453125,-9.703125 Q73.3095703125,-9.5 73.3095703125,-9.171875 Q73.3095703125,-8.890625 72.7939453125,-8.6875 Q72.1064453125,-8.390625 70.7470703125,-8.390625 Q69.3720703125,-8.390625 68.6845703125,-8.6875 Q68.1845703125,-8.890625 68.1845703125,-9.171875 Q68.1845703125,-9.5 68.6845703125,-9.703125 Q69.3876953125,-9.984375 70.7470703125,-9.984375 Z M70.0908203125,-5.734375 L70.0908203125,-5.53125 Q70.0908203125,-5.21875 70.0126953125,-5 Q69.9501953125,-4.796875 69.7783203125,-4.625 Q69.3876953125,-4.140625 69.8408203125,-3.78125 Q70.2783203125,-3.421875 70.6845703125,-3.8125 Q70.9658203125,-4.171875 71.1064453125,-4.53125 Q71.3095703125,-4.96875 71.3095703125,-5.484375 L71.3095703125,-5.78125 L71.7626953125,-5.796875 Q72.7314453125,-5.84375 73.2001953125,-5.859375 Q73.9814453125,-5.890625 74.4814453125,-5.921875 Q74.7158203125,-5.953125 74.8876953125,-6.109375 Q75.0439453125,-6.265625 75.0439453125,-6.515625 Q75.0126953125,-6.734375 74.8408203125,-6.890625 Q74.6376953125,-7.046875 74.3564453125,-7 Q72.9345703125,-6.90625 70.7158203125,-6.859375 Q68.7783203125,-6.8125 66.7783203125,-6.8125 Q66.2001953125,-6.8125 66.2001953125,-6.25 Q66.1689453125,-5.671875 66.7470703125,-5.671875 Q67.7314453125,-5.671875 68.7939453125,-5.703125 Q69.4970703125,-5.71875 70.0908203125,-5.734375 Z M76.8876953125,-4.40625 L76.8876953125,-10.546875 Q76.8876953125,-10.859375 76.6689453125,-11.03125 Q76.4970703125,-11.171875 76.2626953125,-11.171875 Q75.9970703125,-11.171875 75.8251953125,-11.03125 Q75.6220703125,-10.84375 75.6220703125,-10.546875 L75.6220703125,-5.65625 L73.1689453125,-5.65625 Q72.9033203125,-5.65625 72.7158203125,-5.5 Q72.5595703125,-5.3125 72.5595703125,-5.078125 Q72.5908203125,-4.875 72.7314453125,-4.703125 Q72.9345703125,-4.53125 73.2158203125,-4.53125 L75.6220703125,-4.53125 L75.6220703125,-4.328125 Q75.6220703125,-4.0625 75.8251953125,-3.875 Q75.9970703125,-3.734375 76.2783203125,-3.75 Q76.5126953125,-3.75 76.6845703125,-3.921875 Q76.8876953125,-4.109375 76.8876953125,-4.40625 Z M75.4970703125,-4.140625 L68.2001953125,-4.140625 Q67.5908203125,-4.140625 67.5595703125,-3.578125 Q67.5595703125,-3.015625 68.1845703125,-3.015625 L75.3095703125,-3.015625 Q75.5283203125,-3.015625 75.5751953125,-2.96875 Q75.6220703125,-2.9375 75.6220703125,-2.828125 L75.6220703125,-2.515625 Q75.6220703125,-2.453125 75.5751953125,-2.4375 Q75.4970703125,-2.375 75.3251953125,-2.375 L68.9658203125,-2.375 Q68.3408203125,-2.375 67.9658203125,-2.046875 Q67.6220703125,-1.703125 67.6220703125,-1.1875 L67.6220703125,-0.59375 Q67.6220703125,-0.0625 67.9658203125,0.234375 Q68.3095703125,0.546875 68.9345703125,0.546875 L76.6533203125,0.546875 Q76.9189453125,0.546875 77.0751953125,0.375 Q77.2470703125,0.203125 77.2470703125,-0.046875 Q77.2158203125,-0.234375 77.0751953125,-0.4375 Q76.8720703125,-0.59375 76.5908203125,-0.59375 L69.1064453125,-0.59375 Q68.9189453125,-0.59375 68.8720703125,-0.625 Q68.8564453125,-0.640625 68.8564453125,-0.71875 L68.8564453125,-1.125 Q68.8564453125,-1.1875 68.8876953125,-1.21875 Q68.9345703125,-1.265625 69.1220703125,-1.265625 L75.5126953125,-1.265625 Q76.1064453125,-1.265625 76.4814453125,-1.5625 Q76.8876953125,-1.875 76.8876953125,-2.40625 L76.8876953125,-2.890625 Q76.8876953125,-3.515625 76.4814453125,-3.84375 Q76.1220703125,-4.140625 75.4970703125,-4.140625 Z M85.1220703125,-10.78125 Q83.4658203125,-10.78125 82.4658203125,-9.84375 Q81.5908203125,-9 81.5908203125,-7.734375 Q81.5908203125,-6.5 82.4658203125,-5.65625 Q83.4501953125,-4.71875 85.1220703125,-4.71875 Q86.7626953125,-4.71875 87.7470703125,-5.65625 Q88.6376953125,-6.515625 88.6376953125,-7.734375 Q88.6376953125,-9 87.7470703125,-9.84375 Q86.7470703125,-10.78125 85.1220703125,-10.78125 Z M85.1220703125,-9.671875 Q86.2314453125,-9.671875 86.8408203125,-9.078125 Q87.3876953125,-8.53125 87.3876953125,-7.734375 Q87.3876953125,-6.9375 86.8408203125,-6.421875 Q86.2314453125,-5.828125 85.1220703125,-5.828125 Q83.9970703125,-5.828125 83.3720703125,-6.421875 Q82.8251953125,-6.9375 82.8251953125,-7.734375 Q82.8251953125,-8.53125 83.3720703125,-9.078125 Q84.0126953125,-9.671875 85.1220703125,-9.671875 Z M91.3251953125,0.0625 L91.3251953125,-10.59375 Q91.3251953125,-10.890625 91.0908203125,-11.046875 Q90.9345703125,-11.1875 90.7001953125,-11.1875 Q90.4345703125,-11.1875 90.2626953125,-11.046875 Q90.0595703125,-10.859375 90.0595703125,-10.578125 L90.0595703125,0.0625 Q90.0595703125,0.34375 90.2470703125,0.53125 Q90.4189453125,0.703125 90.7001953125,0.703125 Q90.9501953125,0.703125 91.1220703125,0.53125 Q91.3251953125,0.34375 91.3251953125,0.0625 Z M81.2939453125,-2.15625 Q80.9970703125,-2.15625 80.8251953125,-2.015625 Q80.6376953125,-1.84375 80.6376953125,-1.59375 Q80.6376953125,-1.375 80.8095703125,-1.21875 Q80.9814453125,-1.046875 81.2939453125,-1.046875 Q83.9189453125,-1.046875 85.7939453125,-1.15625 Q88.1064453125,-1.3125 89.7001953125,-1.65625 Q89.9501953125,-1.734375 90.1064453125,-1.921875 Q90.2470703125,-2.140625 90.1845703125,-2.359375 Q90.1220703125,-2.59375 89.9189453125,-2.6875 Q89.6689453125,-2.8125 89.3876953125,-2.734375 Q87.8876953125,-2.4375 85.5595703125,-2.28125 Q83.6845703125,-2.15625 81.2939453125,-2.15625 Z M107.04296875,-11.140625 L103.01171875,-11.140625 Q102.38671875,-11.140625 102.38671875,-10.578125 Q102.38671875,-10.015625 103.01171875,-10.015625 L107.08984375,-10.015625 Q107.35546875,-10.015625 107.52734375,-10.203125 Q107.68359375,-10.390625 107.65234375,-10.59375 Q107.65234375,-10.796875 107.49609375,-10.984375 Q107.29296875,-11.140625 107.04296875,-11.140625 Z M109.46484375,-9.65625 L100.63671875,-9.65625 Q100.04296875,-9.65625 100.04296875,-9.078125 Q100.01171875,-8.5 100.62109375,-8.5 L104.37109375,-8.5 Q104.27734375,-8.125 103.13671875,-7.703125 Q101.99609375,-7.28125 100.19921875,-7.1875 Q99.87109375,-7.1875 99.68359375,-6.984375 Q99.52734375,-6.78125 99.58984375,-6.515625 Q99.63671875,-6.296875 99.80859375,-6.125 Q100.04296875,-5.96875 100.33984375,-5.984375 Q102.10546875,-6.09375 103.38671875,-6.546875 Q104.68359375,-6.984375 105.04296875,-7.46875 Q105.41796875,-7.015625 106.66796875,-6.5625 Q107.99609375,-6.078125 109.76171875,-5.984375 Q110.37109375,-5.96875 110.46484375,-6.5 Q110.58984375,-7.09375 109.91796875,-7.171875 Q108.02734375,-7.296875 106.91796875,-7.703125 Q105.77734375,-8.125 105.68359375,-8.5 L109.46484375,-8.5 Q110.01171875,-8.5 110.01171875,-9.078125 Q110.01171875,-9.65625 109.46484375,-9.65625 Z M110.37109375,-5.859375 L99.73046875,-5.859375 Q99.08984375,-5.859375 99.08984375,-5.3125 Q99.08984375,-4.765625 99.71484375,-4.765625 L104.41796875,-4.765625 L104.41796875,-3.84375 Q104.41796875,-3.5625 104.60546875,-3.375 Q104.79296875,-3.21875 105.02734375,-3.21875 Q105.27734375,-3.21875 105.44921875,-3.390625 Q105.63671875,-3.578125 105.63671875,-3.875 L105.63671875,-4.765625 L110.40234375,-4.765625 Q110.96484375,-4.765625 110.96484375,-5.3125 Q110.93359375,-5.859375 110.37109375,-5.859375 Z M108.29296875,-3.40625 L100.62109375,-3.40625 Q100.01171875,-3.40625 100.04296875,-2.84375 Q100.04296875,-2.265625 100.62109375,-2.265625 L108.26171875,-2.265625 Q108.48046875,-2.265625 108.54296875,-2.203125 Q108.60546875,-2.15625 108.60546875,-2 L108.60546875,0.0625 Q108.60546875,0.359375 108.79296875,0.546875 Q108.96484375,0.71875 109.24609375,0.71875 Q109.49609375,0.71875 109.66796875,0.546875 Q109.87109375,0.359375 109.87109375,0.0625 L109.87109375,-2.03125 Q109.87109375,-2.6875 109.43359375,-3.078125 Q109.02734375,-3.40625 108.29296875,-3.40625 Z M122.05859375,-4.671875 L123.44921875,-4.671875 Q123.87109375,-5.265625 124.08984375,-6.015625 Q124.30859375,-6.890625 124.30859375,-7.984375 L124.30859375,-9.34375 Q124.30859375,-10.046875 123.82421875,-10.4375 Q123.35546875,-10.8125 122.58984375,-10.8125 L115.04296875,-10.8125 Q114.46484375,-10.8125 114.46484375,-10.25 Q114.46484375,-9.6875 115.04296875,-9.6875 L122.58984375,-9.6875 Q122.80859375,-9.6875 122.93359375,-9.578125 Q123.04296875,-9.46875 123.04296875,-9.28125 L123.04296875,-7.90625 Q123.04296875,-6.921875 122.85546875,-6.25 Q122.68359375,-5.5625 122.05859375,-4.671875 Z M124.77734375,-5.25 L114.15234375,-5.25 Q113.51171875,-5.25 113.54296875,-4.671875 Q113.57421875,-4.109375 114.13671875,-4.109375 L118.87109375,-4.109375 L118.87109375,0.0625 Q118.87109375,0.34375 119.04296875,0.546875 Q119.23046875,0.703125 119.48046875,0.703125 Q119.71484375,0.703125 119.90234375,0.546875 Q120.08984375,0.359375 120.08984375,0.0625 L120.08984375,-4.109375 L124.77734375,-4.109375 Q125.05859375,-4.109375 125.23046875,-4.28125 Q125.40234375,-4.453125 125.40234375,-4.6875 Q125.40234375,-4.921875 125.23046875,-5.09375 Q125.04296875,-5.25 124.77734375,-5.25 Z M134.4951171875,-6.6875 L142.2294921875,-6.6875 Q142.8076171875,-6.6875 142.7763671875,-7.265625 Q142.7763671875,-7.828125 142.2138671875,-7.828125 L134.5419921875,-7.828125 Q134.3388671875,-7.828125 134.2763671875,-7.890625 Q134.2138671875,-7.9375 134.2138671875,-8.109375 L134.2138671875,-9.578125 Q134.2138671875,-9.703125 134.2763671875,-9.75 Q134.3388671875,-9.8125 134.5576171875,-9.8125 L142.1044921875,-9.8125 Q142.3544921875,-9.8125 142.5107421875,-10.015625 Q142.6357421875,-10.171875 142.6357421875,-10.40625 Q142.6044921875,-10.640625 142.4638671875,-10.796875 Q142.3076171875,-10.96875 142.0263671875,-10.96875 L134.4169921875,-10.96875 Q133.7607421875,-10.96875 133.3388671875,-10.609375 Q132.9482421875,-10.21875 132.9482421875,-9.640625 L132.9482421875,-8.0625 Q132.9482421875,-7.4375 133.3701171875,-7.0625 Q133.7919921875,-6.6875 134.4951171875,-6.6875 Z M143.1044921875,-5.375 L138.4013671875,-5.375 L138.4013671875,-6.65625 Q138.4013671875,-7.25 137.7763671875,-7.21875 Q137.1669921875,-7.21875 137.1669921875,-6.625 L137.1669921875,-5.375 L132.4951171875,-5.375 Q132.2138671875,-5.375 132.0263671875,-5.21875 Q131.8857421875,-5.046875 131.8544921875,-4.84375 Q131.8232421875,-4.609375 131.9794921875,-4.421875 Q132.1201171875,-4.234375 132.3857421875,-4.234375 L143.1044921875,-4.234375 Q143.3857421875,-4.234375 143.5576171875,-4.40625 Q143.7294921875,-4.578125 143.7294921875,-4.8125 Q143.7294921875,-5.046875 143.5576171875,-5.21875 Q143.3701171875,-5.375 143.1044921875,-5.375 Z M137.7919921875,-3.71875 Q135.3076171875,-3.71875 134.0419921875,-3.125 Q132.8076171875,-2.546875 132.8076171875,-1.484375 Q132.8076171875,-0.453125 134.0419921875,0.140625 Q135.3076171875,0.71875 137.7919921875,0.71875 Q140.2607421875,0.71875 141.5419921875,0.140625 Q142.7763671875,-0.453125 142.7763671875,-1.484375 Q142.7763671875,-2.5625 141.5419921875,-3.125 Q140.2763671875,-3.71875 137.7919921875,-3.71875 Z M137.7919921875,-2.59375 Q139.8232421875,-2.59375 140.7763671875,-2.265625 Q141.5576171875,-1.984375 141.5576171875,-1.484375 Q141.5576171875,-1.03125 140.7763671875,-0.765625 Q139.8076171875,-0.40625 137.7919921875,-0.40625 Q135.7607421875,-0.40625 134.7919921875,-0.765625 Q134.0263671875,-1.03125 134.0263671875,-1.484375 Q134.0263671875,-1.984375 134.7919921875,-2.265625 Q135.7451171875,-2.59375 137.7919921875,-2.59375 Z M156.8544921875,-9.03125 L147.6201171875,-9.03125 Q147.0263671875,-9.03125 147.0263671875,-8.46875 Q147.0263671875,-7.890625 147.6201171875,-7.890625 L156.8857421875,-7.890625 Q157.4638671875,-7.890625 157.4326171875,-8.46875 Q157.4326171875,-9.03125 156.8544921875,-9.03125 Z M154.7138671875,-10.8125 L149.7607421875,-10.8125 Q149.1513671875,-10.8125 149.1513671875,-10.234375 Q149.1513671875,-9.671875 149.7607421875,-9.671875 L154.7763671875,-9.671875 Q155.3388671875,-9.671875 155.3076171875,-10.25 Q155.2763671875,-10.8125 154.7138671875,-10.8125 Z M152.2294921875,-7.328125 Q150.1357421875,-7.328125 148.9013671875,-6.609375 Q147.7451171875,-5.9375 147.7451171875,-4.875 Q147.7451171875,-3.8125 148.9013671875,-3.125 Q150.1201171875,-2.40625 152.2294921875,-2.40625 Q154.3232421875,-2.40625 155.5419921875,-3.125 Q156.7294921875,-3.8125 156.7294921875,-4.875 Q156.7294921875,-5.9375 155.5419921875,-6.609375 Q154.3232421875,-7.328125 152.2294921875,-7.328125 Z M152.2294921875,-6.1875 Q153.8544921875,-6.1875 154.7294921875,-5.75 Q155.4638671875,-5.390625 155.4638671875,-4.875 Q155.4638671875,-4.359375 154.7294921875,-4 Q153.8544921875,-3.5625 152.2294921875,-3.5625 Q150.5888671875,-3.5625 149.7138671875,-4 Q148.9951171875,-4.359375 148.9951171875,-4.875 Q148.9951171875,-5.390625 149.7138671875,-5.75 Q150.5888671875,-6.1875 152.2294921875,-6.1875 Z M152.8388671875,-1.375 L152.8388671875,-3.03125 L151.6044921875,-3.03125 L151.6044921875,-1.375 L146.9326171875,-1.375 Q146.3232421875,-1.375 146.2919921875,-0.84375 Q146.2607421875,-0.25 146.8857421875,-0.25 L157.5732421875,-0.25 Q157.8544921875,-0.25 158.0263671875,-0.4375 Q158.1669921875,-0.609375 158.1669921875,-0.828125 Q158.1669921875,-1.046875 157.9951171875,-1.21875 Q157.8076171875,-1.375 157.5419921875,-1.375 L152.8388671875,-1.375 Z M168.2919921875,-9.15625 L161.8388671875,-9.15625 Q161.2451171875,-9.15625 161.2451171875,-8.59375 Q161.2451171875,-8.015625 161.8388671875,-8.015625 L168.3544921875,-8.015625 Q168.6357421875,-8.015625 168.7919921875,-8.21875 Q168.9326171875,-8.359375 168.9326171875,-8.609375 Q168.9013671875,-8.828125 168.7607421875,-8.984375 Q168.5576171875,-9.15625 168.2919921875,-9.15625 Z M166.9638671875,-10.78125 L163.1826171875,-10.78125 Q162.5732421875,-10.78125 162.5732421875,-10.234375 Q162.5732421875,-9.671875 163.1826171875,-9.671875 L166.9951171875,-9.671875 Q167.6201171875,-9.671875 167.5888671875,-10.234375 Q167.5888671875,-10.78125 166.9638671875,-10.78125 Z M165.0888671875,-7.609375 Q163.5732421875,-7.609375 162.6513671875,-6.890625 Q161.8076171875,-6.21875 161.8076171875,-5.234375 Q161.8076171875,-4.234375 162.6513671875,-3.5625 Q163.5576171875,-2.828125 165.0888671875,-2.828125 Q166.5888671875,-2.828125 167.4951171875,-3.5625 Q168.3388671875,-4.25 168.3388671875,-5.234375 Q168.3388671875,-6.203125 167.4951171875,-6.890625 Q166.5888671875,-7.609375 165.0888671875,-7.609375 Z M165.0888671875,-6.46875 Q166.0888671875,-6.46875 166.6357421875,-6.0625 Q167.0732421875,-5.734375 167.0732421875,-5.234375 Q167.0732421875,-4.734375 166.6201171875,-4.390625 Q166.1044921875,-3.96875 165.0888671875,-3.96875 Q164.0732421875,-3.96875 163.5263671875,-4.390625 Q163.0732421875,-4.734375 163.0732421875,-5.234375 Q163.0732421875,-5.734375 163.5107421875,-6.0625 Q164.0732421875,-6.46875 165.0888671875,-6.46875 Z M165.7294921875,-1.578125 L165.7294921875,-3.375 L164.4638671875,-3.375 L164.4638671875,-1.515625 Q164.0576171875,-1.5 162.8076171875,-1.484375 Q162.1357421875,-1.484375 161.2294921875,-1.484375 Q160.9638671875,-1.484375 160.7607421875,-1.3125 Q160.6044921875,-1.125 160.6044921875,-0.90625 Q160.6044921875,-0.671875 160.7763671875,-0.515625 Q160.9638671875,-0.328125 161.2919921875,-0.328125 Q164.3232421875,-0.328125 166.1044921875,-0.5 Q168.3232421875,-0.6875 169.8076171875,-1.171875 Q170.0576171875,-1.28125 170.1044921875,-1.53125 Q170.1826171875,-1.6875 170.1044921875,-1.90625 Q170.0263671875,-2.171875 169.8232421875,-2.25 Q169.6044921875,-2.390625 169.3388671875,-2.265625 Q168.4482421875,-1.96875 167.4638671875,-1.796875 Q166.4638671875,-1.59375 165.7294921875,-1.578125 Z M171.2919921875,0.0625 L171.2919921875,-10.59375 Q171.2919921875,-10.890625 171.0576171875,-11.046875 Q170.9013671875,-11.1875 170.6669921875,-11.1875 Q170.4013671875,-11.1875 170.2294921875,-11.046875 Q170.0263671875,-10.859375 170.0263671875,-10.578125 L170.0263671875,0.0625 Q170.0263671875,0.34375 170.2138671875,0.53125 Q170.3857421875,0.703125 170.6669921875,0.703125 Q170.9169921875,0.703125 171.0888671875,0.53125 Q171.2919921875,0.34375 171.2919921875,0.0625 Z M179.5263671875,-10.78125 Q177.8701171875,-10.78125 176.8701171875,-9.84375 Q175.9951171875,-9 175.9951171875,-7.734375 Q175.9951171875,-6.5 176.8701171875,-5.65625 Q177.8544921875,-4.71875 179.5263671875,-4.71875 Q181.1669921875,-4.71875 182.1513671875,-5.65625 Q183.0419921875,-6.515625 183.0419921875,-7.734375 Q183.0419921875,-9 182.1513671875,-9.84375 Q181.1513671875,-10.78125 179.5263671875,-10.78125 Z M179.5263671875,-9.671875 Q180.6357421875,-9.671875 181.2451171875,-9.078125 Q181.7919921875,-8.53125 181.7919921875,-7.734375 Q181.7919921875,-6.9375 181.2451171875,-6.421875 Q180.6357421875,-5.828125 179.5263671875,-5.828125 Q178.4013671875,-5.828125 177.7763671875,-6.421875 Q177.2294921875,-6.9375 177.2294921875,-7.734375 Q177.2294921875,-8.53125 177.7763671875,-9.078125 Q178.4169921875,-9.671875 179.5263671875,-9.671875 Z M185.7294921875,0.0625 L185.7294921875,-10.59375 Q185.7294921875,-10.890625 185.4951171875,-11.046875 Q185.3388671875,-11.1875 185.1044921875,-11.1875 Q184.8388671875,-11.1875 184.6669921875,-11.046875 Q184.4638671875,-10.859375 184.4638671875,-10.578125 L184.4638671875,0.0625 Q184.4638671875,0.34375 184.6513671875,0.53125 Q184.8232421875,0.703125 185.1044921875,0.703125 Q185.3544921875,0.703125 185.5263671875,0.53125 Q185.7294921875,0.34375 185.7294921875,0.0625 Z M175.6982421875,-2.15625 Q175.4013671875,-2.15625 175.2294921875,-2.015625 Q175.0419921875,-1.84375 175.0419921875,-1.59375 Q175.0419921875,-1.375 175.2138671875,-1.21875 Q175.3857421875,-1.046875 175.6982421875,-1.046875 Q178.3232421875,-1.046875 180.1982421875,-1.15625 Q182.5107421875,-1.3125 184.1044921875,-1.65625 Q184.3544921875,-1.734375 184.5107421875,-1.921875 Q184.6513671875,-2.140625 184.5888671875,-2.359375 Q184.5263671875,-2.59375 184.3232421875,-2.6875 Q184.0732421875,-2.8125 183.7919921875,-2.734375 Q182.2919921875,-2.4375 179.9638671875,-2.28125 Q178.0888671875,-2.15625 175.6982421875,-2.15625 Z M198.509765625,-10.765625 L194.462890625,-10.765625 Q193.853515625,-10.765625 193.884765625,-10.203125 Q193.884765625,-9.625 194.478515625,-9.625 L198.541015625,-9.625 Q198.775390625,-9.625 198.900390625,-9.515625 Q198.978515625,-9.453125 198.978515625,-9.25 L198.978515625,-7.65625 Q198.978515625,-4.84375 197.666015625,-3.328125 Q196.462890625,-1.921875 194.212890625,-1.703125 Q193.603515625,-1.65625 193.650390625,-1.09375 Q193.697265625,-0.515625 194.291015625,-0.5625 Q196.900390625,-0.71875 198.478515625,-2.515625 Q200.197265625,-4.40625 200.197265625,-7.625 L200.197265625,-9.25 Q200.197265625,-9.9375 199.744140625,-10.34375 Q199.275390625,-10.765625 198.509765625,-10.765625 Z M204.056640625,0.0625 L204.056640625,-10.5625 Q204.056640625,-10.875 203.837890625,-11.046875 Q203.666015625,-11.1875 203.431640625,-11.1875 Q203.150390625,-11.1875 202.978515625,-11.015625 Q202.791015625,-10.84375 202.791015625,-10.5625 L202.791015625,-6.59375 L200.744140625,-6.59375 Q200.478515625,-6.59375 200.291015625,-6.4375 Q200.103515625,-6.25 200.134765625,-6.015625 Q200.134765625,-5.796875 200.322265625,-5.625 Q200.494140625,-5.453125 200.806640625,-5.453125 L202.791015625,-5.453125 L202.791015625,0.0625 Q202.791015625,0.34375 202.978515625,0.53125 Q203.150390625,0.703125 203.431640625,0.703125 Q203.681640625,0.703125 203.853515625,0.53125 Q204.056640625,0.34375 204.056640625,0.0625 Z M212.072265625,-10.78125 L209.134765625,-10.78125 Q208.494140625,-10.78125 208.494140625,-10.21875 Q208.462890625,-9.65625 209.119140625,-9.65625 L211.853515625,-9.65625 Q212.197265625,-9.65625 212.322265625,-9.578125 Q212.400390625,-9.5 212.400390625,-9.34375 L212.400390625,-6.90625 Q212.400390625,-6.71875 212.353515625,-6.671875 Q212.291015625,-6.609375 212.025390625,-6.609375 L210.056640625,-6.609375 Q209.353515625,-6.609375 208.947265625,-6.140625 Q208.556640625,-5.71875 208.556640625,-5.109375 L208.556640625,-1.84375 Q208.556640625,-1.234375 208.931640625,-0.84375 Q209.306640625,-0.4375 209.947265625,-0.4375 Q211.353515625,-0.4375 212.416015625,-0.609375 Q213.587890625,-0.765625 214.494140625,-1.171875 Q214.744140625,-1.265625 214.869140625,-1.515625 Q214.931640625,-1.71875 214.884765625,-1.953125 Q214.791015625,-2.203125 214.572265625,-2.296875 Q214.337890625,-2.390625 214.056640625,-2.265625 Q213.322265625,-1.953125 212.259765625,-1.765625 Q211.259765625,-1.578125 210.306640625,-1.578125 Q209.962890625,-1.578125 209.869140625,-1.65625 Q209.791015625,-1.71875 209.791015625,-2 L209.791015625,-5.046875 Q209.791015625,-5.296875 209.869140625,-5.390625 Q209.947265625,-5.46875 210.134765625,-5.46875 L212.181640625,-5.46875 Q212.869140625,-5.46875 213.259765625,-5.859375 Q213.666015625,-6.234375 213.666015625,-6.90625 L213.666015625,-9.53125 Q213.666015625,-10.109375 213.212890625,-10.4375 Q212.791015625,-10.78125 212.072265625,-10.78125 Z M217.634765625,-10.609375 L217.634765625,-5.75 L216.119140625,-5.75 L216.119140625,-10.609375 Q216.119140625,-11.1875 215.494140625,-11.1875 Q214.884765625,-11.1875 214.884765625,-10.609375 L214.884765625,0.0625 Q214.884765625,0.359375 215.072265625,0.546875 Q215.259765625,0.703125 215.494140625,0.703125 Q215.744140625,0.703125 215.931640625,0.546875 Q216.119140625,0.359375 216.119140625,0.0625 L216.119140625,-4.640625 L217.634765625,-4.640625 L217.634765625,0.09375 Q217.634765625,0.375 217.837890625,0.5625 Q218.009765625,0.703125 218.244140625,0.703125 Q218.494140625,0.703125 218.666015625,0.53125 Q218.853515625,0.359375 218.853515625,0.078125 L218.853515625,-10.609375 Q218.853515625,-11.1875 218.244140625,-11.1875 Q217.634765625,-11.1875 217.634765625,-10.609375 Z M226.8837890625,-10.15625 L226.8837890625,-2.359375 Q226.8837890625,-1.609375 227.2900390625,-1.21875 Q227.7275390625,-0.78125 228.6181640625,-0.78125 Q229.7119140625,-0.78125 230.7587890625,-0.9375 Q231.7900390625,-1.0625 232.6181640625,-1.34375 Q232.8837890625,-1.453125 233.0087890625,-1.6875 Q233.1025390625,-1.90625 233.0400390625,-2.125 Q232.9775390625,-2.390625 232.7431640625,-2.5 Q232.5087890625,-2.609375 232.2431640625,-2.515625 Q231.5087890625,-2.25 230.6025390625,-2.078125 Q229.6337890625,-1.921875 228.5869140625,-1.921875 Q228.3369140625,-1.921875 228.2431640625,-2.015625 Q228.1181640625,-2.125 228.1181640625,-2.40625 L228.1181640625,-10.171875 Q228.1181640625,-10.46875 227.9150390625,-10.65625 Q227.7431640625,-10.796875 227.4931640625,-10.796875 Q227.2587890625,-10.796875 227.0712890625,-10.640625 Q226.8837890625,-10.453125 226.8837890625,-10.15625 Z M235.9619140625,-10.609375 L235.9619140625,-5.75 L234.4462890625,-5.75 L234.4462890625,-10.609375 Q234.4462890625,-11.1875 233.8212890625,-11.1875 Q233.2119140625,-11.1875 233.2119140625,-10.609375 L233.2119140625,0.0625 Q233.2119140625,0.359375 233.3994140625,0.546875 Q233.5869140625,0.703125 233.8212890625,0.703125 Q234.0712890625,0.703125 234.2587890625,0.546875 Q234.4462890625,0.359375 234.4462890625,0.0625 L234.4462890625,-4.640625 L235.9619140625,-4.640625 L235.9619140625,0.09375 Q235.9619140625,0.375 236.1650390625,0.5625 Q236.3369140625,0.703125 236.5712890625,0.703125 Q236.8212890625,0.703125 236.9931640625,0.53125 Q237.1806640625,0.359375 237.1806640625,0.078125 L237.1806640625,-10.609375 Q237.1806640625,-11.1875 236.5712890625,-11.1875 Q235.9619140625,-11.1875 235.9619140625,-10.609375 Z M244.5087890625,-10.9375 Q242.9306640625,-10.9375 241.9931640625,-10.015625 Q241.1494140625,-9.15625 241.1494140625,-7.890625 Q241.1494140625,-6.640625 241.9931640625,-5.8125 Q242.9306640625,-4.875 244.5087890625,-4.875 Q246.0869140625,-4.875 246.9931640625,-5.8125 Q247.8369140625,-6.640625 247.8369140625,-7.890625 Q247.8369140625,-9.15625 246.9931640625,-10.015625 Q246.0712890625,-10.9375 244.5087890625,-10.9375 Z M244.5087890625,-9.796875 Q245.5244140625,-9.796875 246.1025390625,-9.203125 Q246.6025390625,-8.703125 246.6025390625,-7.890625 Q246.6025390625,-7.109375 246.1025390625,-6.578125 Q245.5244140625,-5.984375 244.5087890625,-5.984375 Q243.4775390625,-5.984375 242.9150390625,-6.578125 Q242.4150390625,-7.109375 242.4150390625,-7.890625 Q242.4150390625,-8.703125 242.9150390625,-9.203125 Q243.4775390625,-9.796875 244.5087890625,-9.796875 Z M251.2587890625,-5.140625 L251.2587890625,-10.59375 Q251.2587890625,-10.890625 251.0244140625,-11.046875 Q250.8681640625,-11.1875 250.6337890625,-11.1875 Q250.3681640625,-11.1875 250.1962890625,-11.046875 Q249.9931640625,-10.859375 249.9931640625,-10.578125 L249.9931640625,-9.359375 L247.8837890625,-9.359375 Q247.5869140625,-9.359375 247.4150390625,-9.1875 Q247.2431640625,-9.03125 247.2431640625,-8.78125 Q247.2744140625,-8.546875 247.4462890625,-8.390625 Q247.6494140625,-8.21875 247.9462890625,-8.21875 L249.9931640625,-8.21875 L249.9931640625,-7 L247.8994140625,-7 Q247.6181640625,-7 247.4150390625,-6.828125 Q247.2587890625,-6.671875 247.2587890625,-6.421875 Q247.2587890625,-6.203125 247.4306640625,-6.03125 Q247.6337890625,-5.859375 247.9150390625,-5.859375 L249.9931640625,-5.859375 L249.9931640625,-5.140625 Q249.9931640625,-4.859375 250.1806640625,-4.671875 Q250.3525390625,-4.5 250.6337890625,-4.5 Q250.8837890625,-4.5 251.0556640625,-4.671875 Q251.2587890625,-4.859375 251.2587890625,-5.140625 Z M249.7275390625,-3.5625 L242.2275390625,-3.5625 Q241.6181640625,-3.5625 241.6494140625,-3 Q241.6494140625,-2.421875 242.2275390625,-2.421875 L249.6494140625,-2.421875 Q249.8681640625,-2.421875 249.9306640625,-2.359375 Q249.9931640625,-2.3125 249.9931640625,-2.140625 L249.9931640625,0.0625 Q249.9931640625,0.359375 250.1806640625,0.546875 Q250.3681640625,0.703125 250.6337890625,0.703125 Q250.8681640625,0.703125 251.0400390625,0.5625 Q251.2587890625,0.359375 251.2587890625,0.0625 L251.2587890625,-2.171875 Q251.2587890625,-2.8125 250.8369140625,-3.1875 Q250.4306640625,-3.5625 249.7275390625,-3.5625 Z" style="fill:rgb(0,0,0);stroke:none;"/>
  </g>
  <g>
    <rect height="70" style="fill:rgb(255,255,255);stroke:none;" width="74" x="420" y="225.953125"/>
    <rect height="70" style="fill:none;stroke:rgb(130,130,130);stroke-miterlimit:10;stroke-linejoin:bevel;stroke-dasharray:3,0;" width="74" x="420" y="225.953125"/>
    <rect height="20" style="fill:rgb(239,141,156);stroke:none;" width="20" x="430" y="235.953125"/>
  </g>
  <g transform="translate(460 250.375)">
    <path d="M7.078125,-8.40625 L3.90625,-8.40625 Q3.59375,-8.40625 3.59375,-8.140625 Q3.59375,-7.859375 3.90625,-7.859375 L7.125,-7.859375 Q7.25,-7.859375 7.328125,-7.953125 Q7.40625,-8.03125 7.390625,-8.140625 Q7.390625,-8.25 7.3125,-8.34375 Q7.21875,-8.40625 7.078125,-8.40625 Z M8.984375,-7.234375 L2.046875,-7.234375 Q1.75,-7.234375 1.75,-6.96875 Q1.734375,-6.6875 2.046875,-6.6875 L5.1875,-6.6875 Q5.0625,-6.078125 4.078125,-5.71875 Q3.15625,-5.375 1.703125,-5.3125 Q1.53125,-5.3125 1.4375,-5.203125 Q1.359375,-5.109375 1.390625,-4.984375 Q1.421875,-4.859375 1.515625,-4.78125 Q1.640625,-4.6875 1.8125,-4.703125 Q3.171875,-4.796875 4.140625,-5.140625 Q5.109375,-5.46875 5.5,-5.984375 Q5.90625,-5.484375 6.859375,-5.140625 Q7.859375,-4.78125 9.234375,-4.703125 Q9.546875,-4.6875 9.609375,-4.96875 Q9.65625,-5.25 9.328125,-5.28125 Q7.828125,-5.390625 6.921875,-5.71875 Q5.9375,-6.078125 5.8125,-6.6875 L8.984375,-6.6875 Q9.25,-6.6875 9.25,-6.96875 Q9.25,-7.234375 8.984375,-7.234375 Z M9.703125,-4.328125 L1.328125,-4.328125 Q1.015625,-4.328125 1.015625,-4.078125 Q0.984375,-3.796875 1.28125,-3.796875 L5.1875,-3.796875 L5.1875,-2.875 Q5.1875,-2.71875 5.28125,-2.625 Q5.375,-2.546875 5.5,-2.546875 Q5.625,-2.546875 5.703125,-2.640625 Q5.8125,-2.734375 5.8125,-2.90625 L5.8125,-3.796875 L9.71875,-3.796875 Q9.984375,-3.796875 9.984375,-4.078125 Q9.984375,-4.328125 9.703125,-4.328125 Z M8.140625,-2.84375 L2.1875,-2.84375 Q1.859375,-2.84375 1.84375,-2.578125 Q1.84375,-2.296875 2.171875,-2.296875 L8.0625,-2.296875 Q8.296875,-2.296875 8.390625,-2.21875 Q8.484375,-2.15625 8.484375,-1.96875 L8.484375,-1.75 Q8.484375,-1.609375 8.375,-1.546875 Q8.28125,-1.5 8.09375,-1.5 L2.703125,-1.5 Q2.296875,-1.5 2.078125,-1.28125 Q1.875,-1.0625 1.875,-0.703125 L1.875,-0.296875 Q1.875,0.03125 2.078125,0.21875 Q2.28125,0.4375 2.640625,0.4375 L8.953125,0.4375 Q9.09375,0.4375 9.171875,0.34375 Q9.25,0.265625 9.25,0.15625 Q9.234375,0.046875 9.15625,-0.046875 Q9.0625,-0.125 8.921875,-0.125 L2.875,-0.125 Q2.6875,-0.125 2.59375,-0.1875 Q2.515625,-0.25 2.515625,-0.40625 L2.515625,-0.609375 Q2.515625,-0.78125 2.59375,-0.859375 Q2.671875,-0.953125 2.890625,-0.953125 L8.34375,-0.953125 Q8.6875,-0.953125 8.90625,-1.15625 Q9.125,-1.375 9.125,-1.6875 L9.125,-2.140625 Q9.125,-2.453125 8.828125,-2.671875 Q8.546875,-2.84375 8.140625,-2.84375 Z M18.921875,-8.265625 L13.03125,-8.265625 Q12.734375,-8.265625 12.734375,-8 Q12.734375,-7.71875 13.03125,-7.71875 L18.828125,-7.71875 Q19.125,-7.71875 19.296875,-7.578125 Q19.484375,-7.421875 19.484375,-7.171875 L19.484375,-6.71875 Q19.484375,-6.046875 19.375,-5.59375 Q19.234375,-5.015625 18.859375,-4.421875 L19.515625,-4.421875 Q19.828125,-4.953125 19.984375,-5.546875 Q20.125,-6.078125 20.125,-6.703125 L20.125,-7.21875 Q20.125,-7.71875 19.796875,-8 Q19.46875,-8.265625 18.921875,-8.265625 Z M20.671875,-4.796875 L12.328125,-4.796875 Q12.015625,-4.796875 12.015625,-4.515625 Q11.984375,-4.25 12.28125,-4.25 L20.671875,-4.25 Q20.8125,-4.25 20.90625,-4.328125 Q20.984375,-4.421875 20.984375,-4.515625 Q20.984375,-4.625 20.90625,-4.71875 Q20.8125,-4.796875 20.671875,-4.796875 Z M19.1875,-2.703125 L13.765625,-2.703125 Q13.359375,-2.703125 13.109375,-2.484375 Q12.875,-2.25 12.875,-1.859375 L12.875,-0.515625 Q12.875,-0.140625 13.109375,0.078125 Q13.328125,0.296875 13.765625,0.296875 L19.265625,0.296875 Q19.65625,0.296875 19.890625,0.046875 Q20.125,-0.171875 20.125,-0.53125 L20.125,-1.9375 Q20.125,-2.28125 19.859375,-2.5 Q19.609375,-2.703125 19.1875,-2.703125 Z M19.484375,-1.796875 L19.484375,-0.609375 Q19.484375,-0.421875 19.375,-0.328125 Q19.265625,-0.265625 19.03125,-0.265625 L14.0,-0.265625 Q13.71875,-0.265625 13.609375,-0.34375 Q13.515625,-0.4375 13.515625,-0.640625 L13.515625,-1.765625 Q13.515625,-1.984375 13.59375,-2.0625 Q13.703125,-2.15625 13.96875,-2.15625 L19.0,-2.15625 Q19.25,-2.15625 19.375,-2.078125 Q19.484375,-2 19.484375,-1.796875 Z" style="fill:rgb(0,0,0);stroke:none;"/>
  </g>
  <g>
    <rect height="20" style="fill:rgb(213,221,94);stroke:none;" width="20" x="430" y="265.953125"/>
  </g>
  <g transform="translate(460 280.3203125)">
    <path d="M3.828125,-8.25 Q2.671875,-8.25 1.984375,-7.578125 Q1.359375,-6.953125 1.359375,-6.03125 Q1.359375,-5.125 1.984375,-4.515625 Q2.671875,-3.828125 3.828125,-3.828125 Q5,-3.828125 5.65625,-4.515625 Q6.28125,-5.125 6.28125,-6.03125 Q6.28125,-6.953125 5.65625,-7.578125 Q4.984375,-8.25 3.828125,-8.25 Z M3.828125,-7.6875 Q4.703125,-7.6875 5.203125,-7.1875 Q5.65625,-6.734375 5.65625,-6.03125 Q5.65625,-5.34375 5.203125,-4.875 Q4.703125,-4.359375 3.828125,-4.359375 Q2.9375,-4.359375 2.453125,-4.875 Q2.015625,-5.34375 2.015625,-6.03125 Q2.015625,-6.734375 2.453125,-7.1875 Q2.9375,-7.6875 3.828125,-7.6875 Z M8.953125,-3.875 L8.953125,-8.15625 Q8.953125,-8.296875 8.859375,-8.375 Q8.765625,-8.4375 8.640625,-8.4375 Q8.5,-8.4375 8.40625,-8.375 Q8.3125,-8.28125 8.3125,-8.140625 L8.3125,-3.875 Q8.3125,-3.71875 8.40625,-3.625 Q8.5,-3.53125 8.640625,-3.53125 Q8.765625,-3.53125 8.859375,-3.625 Q8.953125,-3.71875 8.953125,-3.875 Z M8.3125,-2.703125 L8.3125,-2.046875 L2.75,-2.046875 L2.75,-2.703125 Q2.75,-2.859375 2.640625,-2.9375 Q2.5625,-3.015625 2.421875,-3.015625 Q2.296875,-3.015625 2.21875,-2.9375 Q2.109375,-2.859375 2.109375,-2.703125 L2.109375,-0.5 Q2.109375,-0.15625 2.328125,0.0625 Q2.53125,0.296875 2.90625,0.296875 L8.09375,0.296875 Q8.5,0.296875 8.734375,0.0625 Q8.953125,-0.140625 8.953125,-0.46875 L8.953125,-2.703125 Q8.953125,-2.859375 8.859375,-2.9375 Q8.765625,-3.015625 8.640625,-3.015625 Q8.5,-3.015625 8.40625,-2.9375 Q8.3125,-2.859375 8.3125,-2.703125 Z M8.3125,-1.5 L8.3125,-0.609375 Q8.3125,-0.421875 8.234375,-0.34375 Q8.140625,-0.265625 7.921875,-0.265625 L3.15625,-0.265625 Q2.9375,-0.265625 2.84375,-0.359375 Q2.75,-0.4375 2.75,-0.625 L2.75,-1.5 L8.3125,-1.5 Z M18.921875,-8.265625 L13.03125,-8.265625 Q12.734375,-8.265625 12.734375,-8 Q12.734375,-7.71875 13.03125,-7.71875 L18.828125,-7.71875 Q19.125,-7.71875 19.296875,-7.578125 Q19.484375,-7.421875 19.484375,-7.171875 L19.484375,-6.71875 Q19.484375,-6.046875 19.375,-5.59375 Q19.234375,-5.015625 18.859375,-4.421875 L19.515625,-4.421875 Q19.828125,-4.953125 19.984375,-5.546875 Q20.125,-6.078125 20.125,-6.703125 L20.125,-7.21875 Q20.125,-7.71875 19.796875,-8 Q19.46875,-8.265625 18.921875,-8.265625 Z M20.671875,-4.796875 L12.328125,-4.796875 Q12.015625,-4.796875 12.015625,-4.515625 Q11.984375,-4.25 12.28125,-4.25 L20.671875,-4.25 Q20.8125,-4.25 20.90625,-4.328125 Q20.984375,-4.421875 20.984375,-4.515625 Q20.984375,-4.625 20.90625,-4.71875 Q20.8125,-4.796875 20.671875,-4.796875 Z M19.1875,-2.703125 L13.765625,-2.703125 Q13.359375,-2.703125 13.109375,-2.484375 Q12.875,-2.25 12.875,-1.859375 L12.875,-0.515625 Q12.875,-0.140625 13.109375,0.078125 Q13.328125,0.296875 13.765625,0.296875 L19.265625,0.296875 Q19.65625,0.296875 19.890625,0.046875 Q20.125,-0.171875 20.125,-0.53125 L20.125,-1.9375 Q20.125,-2.28125 19.859375,-2.5 Q19.609375,-2.703125 19.1875,-2.703125 Z M19.484375,-1.796875 L19.484375,-0.609375 Q19.484375,-0.421875 19.375,-0.328125 Q19.265625,-0.265625 19.03125,-0.265625 L14.0,-0.265625 Q13.71875,-0.265625 13.609375,-0.34375 Q13.515625,-0.4375 13.515625,-0.640625 L13.515625,-1.765625 Q13.515625,-1.984375 13.59375,-2.0625 Q13.703125,-2.15625 13.96875,-2.15625 L19.0,-2.15625 Q19.25,-2.15625 19.375,-2.078125 Q19.484375,-2 19.484375,-1.796875 Z" style="fill:rgb(0,0,0);stroke:none;"/>
  </g>
</svg>
